<svg xmlns="http://www.w3.org/2000/svg" width="121.47" height="134.967" viewBox="0 0 121.47 134.967">
  <path id="android_off" d="M49.825,31.281a60.745,60.745,0,0,1,75.82,0l9.808-9.808L145,31.017l-9.808,9.808a60.48,60.48,0,0,1,13.281,37.91v6.748H27V78.735a60.479,60.479,0,0,1,13.281-37.91l-9.808-9.808,9.544-9.544ZM27,98.98H148.47v47.238a6.748,6.748,0,0,1-6.748,6.748H33.748A6.748,6.748,0,0,1,27,146.218ZM67.49,65.238a6.748,6.748,0,1,0-6.748-6.748A6.748,6.748,0,0,0,67.49,65.238Zm40.49,0a6.748,6.748,0,1,0-6.748-6.748A6.748,6.748,0,0,0,107.98,65.238Z" transform="translate(-27 -18)" fill="#cecfd2"/>
</svg>
