<svg xmlns="http://www.w3.org/2000/svg" width="109.943" height="134.967" viewBox="0 0 109.943 134.967">
  <path id="apple_off" d="M76.119,45.678c-5.331,0-13.584-6.062-22.274-5.842-11.466.146-21.982,6.646-27.9,16.943-11.9,20.668-3.067,51.194,8.545,67.991,5.7,8.179,12.415,17.381,21.325,17.089,8.545-.365,11.758-5.55,22.128-5.55,10.3,0,13.218,5.55,22.274,5.331,9.2-.146,15.044-8.325,20.668-16.578a73.4,73.4,0,0,0,9.348-19.207c-.219-.073-17.892-6.865-18.111-27.313-.146-17.089,13.949-25.269,14.606-25.634C118.7,41.15,106.354,39.835,102.045,39.543,90.8,38.667,81.377,45.678,76.119,45.678ZM95.107,28.443c4.747-5.7,7.887-13.657,7.011-21.544-6.792.292-14.971,4.528-19.864,10.224C77.872,22.162,74.074,30.268,75.1,38.01,82.619,38.594,90.36,34.139,95.107,28.443Z" transform="translate(-20.291 -6.899)" fill="#cecfd2"/>
</svg>
