<svg xmlns="http://www.w3.org/2000/svg" xmlns:xlink="http://www.w3.org/1999/xlink" width="35" height="35" viewBox="0 0 35 35">
  <defs>
    <clipPath id="clip-path">
      <rect id="사각형_265" data-name="사각형 265" width="35" height="35" transform="translate(13589 576)" fill="#fff" stroke="#707070" stroke-width="1"/>
    </clipPath>
  </defs>
  <g id="cancel" transform="translate(-13589 -576)" clip-path="url(#clip-path)">
    <path id="cancel_24dp_1F1F1F_FILL0_wght300_GRAD0_opsz24" d="M15.474-13.533l6.632-6.632,6.632,6.632,1.941-1.941-6.632-6.632,6.632-6.632-1.941-1.941-6.632,6.632-6.632-6.632-1.941,1.941,6.632,6.632-6.632,6.632Zm6.635,8.927a17.049,17.049,0,0,1-6.825-1.378,17.676,17.676,0,0,1-5.558-3.74,17.674,17.674,0,0,1-3.742-5.555A17.033,17.033,0,0,1,4.605-22.1a17.049,17.049,0,0,1,1.378-6.825,17.676,17.676,0,0,1,3.74-5.558,17.674,17.674,0,0,1,5.555-3.742A17.033,17.033,0,0,1,22.1-39.605a17.049,17.049,0,0,1,6.825,1.378,17.676,17.676,0,0,1,5.558,3.74,17.674,17.674,0,0,1,3.742,5.555,17.033,17.033,0,0,1,1.378,6.824,17.049,17.049,0,0,1-1.378,6.825,17.676,17.676,0,0,1-3.74,5.558,17.674,17.674,0,0,1-5.555,3.742A17.033,17.033,0,0,1,22.108-4.605Zm0-2.763a14.223,14.223,0,0,0,10.454-4.283,14.223,14.223,0,0,0,4.283-10.454,14.223,14.223,0,0,0-4.283-10.454,14.223,14.223,0,0,0-10.454-4.283,14.223,14.223,0,0,0-10.454,4.283A14.223,14.223,0,0,0,7.368-22.105a14.223,14.223,0,0,0,4.283,10.454A14.223,14.223,0,0,0,22.105-7.368ZM22.105-22.105Z" transform="translate(13584.395 615.605)" fill="#fff"/>
  </g>
</svg>
