<svg xmlns="http://www.w3.org/2000/svg" width="21.344" height="24" viewBox="0 0 21.344 24">
  <g id="event" transform="translate(-13437.328 -397)">
    <path id="event_available_24dp_1F1F1F_FILL0_wght300_GRAD0_opsz24" d="M13.748-7.553,9.726-11.575l1.362-1.362,2.661,2.661,5.3-5.3,1.362,1.362ZM6.664-3.139A2.191,2.191,0,0,1,5.054-3.8a2.191,2.191,0,0,1-.659-1.611v-16.8a2.191,2.191,0,0,1,.659-1.611,2.191,2.191,0,0,1,1.611-.659H8.4v-2.656h1.932v2.656h9.513v-2.656h1.883v2.656h1.738a2.191,2.191,0,0,1,1.611.659,2.191,2.191,0,0,1,.659,1.611v16.8A2.191,2.191,0,0,1,25.079-3.8a2.191,2.191,0,0,1-1.611.659Zm0-1.883h16.8a.369.369,0,0,0,.266-.121.369.369,0,0,0,.121-.266V-17.191H6.278V-5.409a.369.369,0,0,0,.121.266.369.369,0,0,0,.266.121ZM6.278-19.075H23.855v-3.139a.369.369,0,0,0-.121-.266.369.369,0,0,0-.266-.121H6.664a.369.369,0,0,0-.266.121.369.369,0,0,0-.121.266v3.139Zm0,0v0Z" transform="translate(13432.934 424.139)" fill="#fff"/>
  </g>
</svg>
