<svg xmlns="http://www.w3.org/2000/svg" width="173.758" height="141.219" viewBox="0 0 173.758 141.219">
  <g id="gift" transform="translate(-13989.121 -368.391)">
    <path id="패스_4610" data-name="패스 4610" d="M988.649,843.49l3.754,25.537,8.767-5.248,8.618-2.214-.119-15.386,6.97-29.905-20.126-4.709Z" transform="translate(13102.504 -362.418)" fill="#1956ab"/>
    <path id="패스_4611" data-name="패스 4611" d="M518.19,810.2l-4.516,34.615.406,22.848-27.493-1.777-27.009,1.53.621-22.6-4.918-33.069c21.055-1.528,42.019-1.982,62.909-1.546" transform="translate(13580.826 -358.049)" fill="#1570ef"/>
    <path id="패스_4612" data-name="패스 4612" d="M453.586,797.229l.355,2.4c21.011-.909,41.929-1.524,62.5-1.032l20.17,3.791.41-1.665-20.355-5.543Z" transform="translate(13582.347 -344.722)" fill="#a8ccff"/>
    <path id="패스_4613" data-name="패스 4613" d="M1065.79,710.05l22.239,5.926c1.564,3.474.447,6.891-1.855,9.517l-21.327-4.967Z" transform="translate(13034.169 -268.38)" fill="#1956ab"/>
    <path id="패스_4614" data-name="패스 4614" d="M500.727,708.088a16.283,16.283,0,0,1,.024,10.477c-20.678-.44-42.3-.019-65.093,1.6a13.3,13.3,0,0,1,.015-9.642,454.482,454.482,0,0,1,65.055-2.436" transform="translate(13599.231 -266.418)" fill="#1570ef"/>
    <path id="패스_4615" data-name="패스 4615" d="M867.927,594.658c.837.1,5.11-.189,10.746-.083,2.757.052,11.73-2.928,12.414-7.586.8-5.454-3.971-5.625-3.963-5.43.258,6.578-6.4,8.147-10.522,9.275-2.6.712-5.822.583-6.77.745-.75.128-1.433,1.554-1.9,3.079" transform="translate(13210.767 -153.108)" fill="#b4b4b4"/>
    <path id="패스_4616" data-name="패스 4616" d="M577.457,559.156c-1.674-.413-17.026-4.2-18.964-13.766-.248-1.227-4.146,5.579-2.453,8.97,1.738,3.479,9.832,8.595,11.545,8.444,4.343-.38,4.147-.143,8.351-.477a7.653,7.653,0,0,0,2.453-1.2c.313-.218-.818-.429-.931-1.971" transform="translate(13490.848 -120.583)" fill="#b4b4b4"/>
    <path id="패스_4617" data-name="패스 4617" d="M575.116,480.817c-2.8-8.72-7.271-17.553-14.148-20.443-4.477-1.233-7.688.106-10.717,5.323-1.526,2.629-1.44,9.35-.541,11.319,5.532-18.142,14.989-7.214,22.345,7.913Z" transform="translate(13496.724 -44.089)" fill="#fff"/>
    <path id="패스_4618" data-name="패스 4618" d="M889.512,527.793c-.077-.853.386-12.337-10.979-5.142-4.939,3.126-8.045,6.921-9.659,8.405-.424.391-.8-.817-.946-2.409-.31-3.451,11.162-18.188,19.331-16.123,3.385.856,8.336,9.539,2.252,15.269" transform="translate(13210.771 -91.063)" fill="#fff"/>
    <path id="패스_4619" data-name="패스 4619" d="M768.5,658.2c-.248-4.729-.578-6.805,6.163-5.531,1.809.342,6.857-2.066,4.367,5.468Z" transform="translate(13300.02 -216.591)" fill="#1570ef"/>
    <path id="패스_4620" data-name="패스 4620" d="M712.1,698.4c4.34-1.188,6.644-1.451,10.559-.551a211.187,211.187,0,0,0-.838,67.424,34.784,34.784,0,0,1-11.041-.284c-1.886-23.113-2.7-44.332,1.32-66.59" transform="translate(13353.091 -256.961)" fill="#fff"/>
    <path id="패스_4621" data-name="패스 4621" d="M1100.887,734.175c-4.162,21.454-8.516,41.038-7.914,61.068a7.664,7.664,0,0,0,4.347-1.7c.387-19.454,4.512-38.511,8.916-57.943a5.686,5.686,0,0,0-5.348-1.425" transform="translate(13008.996 -289.86)" fill="#fff"/>
    <path id="패스_4622" data-name="패스 4622" d="M839.7,695.773c6.354,4,7.341,10,5.668,19.245,3.349-3.789,2.913-5.374,3.3-5.318.759.11,2.717,4.025,2.965,4.41.811-2.278-.2-8.628-.426-9.673-1.695-7.827-7.042-10.914-11.507-8.664" transform="translate(13236.081 -254.933)" fill="#fff"/>
    <path id="패스_4623" data-name="패스 4623" d="M588.381,714.755c.063-6.364.2-10.219,2.421-14.365,2.249-4.19,6.214-4.167,6.857-4.642-2.874-2.006-7.6-2.247-10.333.672-5.067,5.414-5.864,12.454-4.778,18.648a8.875,8.875,0,0,0,2.6-4.989c1.036,2.578,1.893,2.764,3.235,4.676" transform="translate(13467.074 -254.197)" fill="#fff"/>
    <path id="패스_4624" data-name="패스 4624" d="M1267.113,463.169l33.091-20.246,9.9.188-6.928,7.669Z" transform="translate(12852.777 -28.821)" fill="#fff"/>
    <path id="패스_4625" data-name="패스 4625" d="M0,638.708c.473-.848,1.965-7.974,2.524-7.952,16.581.657,34.537,13.028,33.3,12.4-1.939-.982-24.5-7.32-35.828-4.452" transform="translate(13989.121 -197.269)" fill="#fff"/>
    <path id="패스_4626" data-name="패스 4626" d="M595.617,41.377a338.381,338.381,0,0,0-10.9-35.417L578.267,0,574.973,8.02a175.991,175.991,0,0,1,20.644,33.357" transform="translate(13473.487 368.393)" fill="#1570ef"/>
    <path id="패스_4627" data-name="패스 4627" d="M1176.874,253.863a105.058,105.058,0,0,1,18.731-22.347l-4.094-1.6-.8-5.169a115.776,115.776,0,0,0-17.49,29.7Z" transform="translate(12936.982 166.842)" fill="#fff"/>
    <path id="패스_4628" data-name="패스 4628" d="M186.841,213.328a119.784,119.784,0,0,0-28.485-18.083l4.605-2.876-.31-5.673a122.781,122.781,0,0,1,28.806,26.185Z" transform="translate(13847.107 200.961)" fill="#fff"/>
    <path id="패스_4629" data-name="패스 4629" d="M970.013,350.056c-3.125.51-4.761,3.94-7.143,5.139-.6-2.022-1.157-3.02-1.759-5.041,2.727-1.231,5.742-5.7,6.705-5,.409.3.83,1.4,2.2,4.9" transform="translate(13127.199 58.925)" fill="#1570ef"/>
    <path id="패스_4630" data-name="패스 4630" d="M581.855,325.211c-2.381.5-3.4,3.292-5.161,4.323-.609-1.595-1.109-2.374-1.718-3.968,2.022-1.067,4.037-4.73,4.832-4.2.337.225.742,1.094,2.047,3.844" transform="translate(13473.484 80.237)" fill="#fff"/>
    <path id="패스_4631" data-name="패스 4631" d="M247.235,504.846c-1.54-2.767-5.321-3.143-7.257-4.977,1.7-1.252,2.448-2.112,4.146-3.364,2.082,2.148,7.312,3.468,6.977,4.613-.141.485-1.039,1.257-3.867,3.729" transform="translate(13773.909 -76.873)" fill="#fff"/>
    <path id="패스_4632" data-name="패스 4632" d="M163.249,841.662c-3.057-.825-5.963,1.623-8.627,1.732.286-2.09.192-3.228.479-5.318,2.992,0,7.584-2.825,8.171-1.786.249.439.177,1.621-.022,5.372" transform="translate(13850.457 -381.386)" fill="#1570ef"/>
    <path id="패스_4633" data-name="패스 4633" d="M1421.5,719.18c-1.54-2.767-5.321-3.143-7.256-4.977,1.7-1.252,2.448-2.112,4.146-3.364,2.083,2.148,7.312,3.468,6.977,4.613-.141.485-1.039,1.257-3.867,3.729" transform="translate(12720.831 -269.087)" fill="#1570ef"/>
    <path id="패스_4634" data-name="패스 4634" d="M944.121,93.848c-4.054,7.24-6.255,11.653-10.319,17.4.544-3.351,3.38-11.556,6.314-23.205,1.558,2.316,3.142,4.1,4,5.8" transform="translate(13151.69 289.431)" fill="#fff"/>
    <path id="패스_4635" data-name="패스 4635" d="M1401.21,375.622a.231.231,0,0,1,.445,0l.71,2.152a.239.239,0,0,0,.223.171h2.241a.24.24,0,0,1,.227.184.271.271,0,0,1-.1.29l-1.77,1.267a.272.272,0,0,0-.093.3l.686,2.078a.274.274,0,0,1-.076.291.221.221,0,0,1-.276.013l-1.867-1.336a.219.219,0,0,0-.26,0l-1.867,1.336a.221.221,0,0,1-.277-.013.274.274,0,0,1-.076-.291c.226-.686.55-1.668.685-2.078a.27.27,0,0,0-.093-.3l-1.77-1.267a.271.271,0,0,1-.1-.29.24.24,0,0,1,.227-.184h2.241a.239.239,0,0,0,.223-.171l.71-2.152" transform="translate(12735.578 31.687)" fill="#fff"/>
    <path id="패스_4636" data-name="패스 4636" d="M1145.9,166.91a.231.231,0,0,1,.445,0l.71,2.152a.239.239,0,0,0,.223.171h2.241a.24.24,0,0,1,.227.184.271.271,0,0,1-.1.29l-1.769,1.267a.271.271,0,0,0-.093.3l.686,2.078a.274.274,0,0,1-.076.291.221.221,0,0,1-.276.013l-1.867-1.336a.219.219,0,0,0-.26,0l-1.867,1.336a.221.221,0,0,1-.276-.013.273.273,0,0,1-.076-.291l.685-2.078a.27.27,0,0,0-.093-.3l-1.77-1.267a.271.271,0,0,1-.1-.29.24.24,0,0,1,.227-.184h2.241a.239.239,0,0,0,.223-.171l.71-2.152" transform="translate(12964.539 218.86)" fill="#1570ef"/>
    <path id="패스_4637" data-name="패스 4637" d="M814.867,473.711a.231.231,0,0,1,.445,0l.71,2.152a.239.239,0,0,0,.223.171h2.241a.24.24,0,0,1,.227.184.271.271,0,0,1-.1.29l-1.769,1.267a.271.271,0,0,0-.093.3l.686,2.078a.275.275,0,0,1-.076.291.221.221,0,0,1-.276.013l-1.867-1.336a.219.219,0,0,0-.26,0l-1.867,1.336a.221.221,0,0,1-.276-.013.274.274,0,0,1-.076-.291c.227-.686.55-1.668.685-2.078a.27.27,0,0,0-.093-.3l-1.77-1.267a.271.271,0,0,1-.1-.29.24.24,0,0,1,.227-.184h2.241a.239.239,0,0,0,.223-.171l.71-2.152" transform="translate(13261.409 -56.279)" fill="#fff"/>
    <path id="패스_4638" data-name="패스 4638" d="M447.3,186.873a.231.231,0,0,1,.445,0l.71,2.152a.239.239,0,0,0,.223.171h2.241a.24.24,0,0,1,.227.184.271.271,0,0,1-.1.29l-1.769,1.267a.271.271,0,0,0-.093.3l.686,2.078a.274.274,0,0,1-.076.291.221.221,0,0,1-.276.013l-1.867-1.336a.219.219,0,0,0-.26,0l-1.867,1.336a.221.221,0,0,1-.276-.013.274.274,0,0,1-.076-.291l.685-2.078a.271.271,0,0,0-.093-.3L444,189.671a.271.271,0,0,1-.1-.29.24.24,0,0,1,.227-.184h2.241a.239.239,0,0,0,.223-.171l.71-2.152" transform="translate(13591.038 200.957)" fill="#1570ef"/>
    <path id="패스_4639" data-name="패스 4639" d="M412.1,577.495a.231.231,0,0,1,.445,0l.71,2.152a.239.239,0,0,0,.223.171h2.241a.24.24,0,0,1,.227.184.271.271,0,0,1-.1.29l-1.769,1.266a.271.271,0,0,0-.093.3l.686,2.078a.274.274,0,0,1-.076.291.221.221,0,0,1-.276.013l-1.867-1.336a.219.219,0,0,0-.26,0l-1.867,1.336a.221.221,0,0,1-.276-.013.274.274,0,0,1-.076-.291c.226-.686.55-1.668.685-2.078a.27.27,0,0,0-.093-.3l-1.77-1.266a.271.271,0,0,1-.1-.29.24.24,0,0,1,.227-.184h2.241a.239.239,0,0,0,.223-.171l.71-2.152" transform="translate(13622.609 -149.352)" fill="#1570ef"/>
    <g id="그룹_234" data-name="그룹 234" transform="translate(196 -14)">
      <path id="패스_4640" data-name="패스 4640" d="M252.108,983.276c.044-3.222.172-9.2,5.049-9.541a1.42,1.42,0,0,1,1.368.5c.538.794-.359,1.586-1.337,1.153-1.563-.694-3.222,1.823-.791,2.108,4.774.56,5.86-4.927,1.085-5.724-4.86-.81-8.416,6.514-8.53,10.832.975-.73.8-.742,1.776-1.473a5.4,5.4,0,0,0,1.381,2.144" transform="translate(13569.862 -489.036)" fill="#fff"/>
      <path id="패스_4641" data-name="패스 4641" d="M281.62,921.955a3.758,3.758,0,0,1-2.6-5.956c1.427-1.641,3.486-2.31,4.39-2.071a.742.742,0,0,1,.016,1.417c-1.062.278-1.43-.334-1.87.661-1.024,2.318,6.1.967,3.857-2.859-.863-1.471-3.525-1.486-6.084.173-2.125,1.377-4.45,4.027-3.127,6.854a6.465,6.465,0,0,0,2.352,3c2.149,1.372,2.872.991,3.07-1.219" transform="translate(13545.774 -435.542)" fill="#fff"/>
      <path id="패스_4642" data-name="패스 4642" d="M312.732,875.431c-1.2.64-5.345,1.482-4.369,4.5.239.738,1.211,1.036,1.236,1.067.286.343-.292,1.6-.344,1.7-2.43-.81-3.182-2.413-2.934-3.865a5.669,5.669,0,0,1,3.25-4.216c.8-.377,2.643-1.109,2.876-.836s-.1,1.371.284,1.655" transform="translate(13518.453 -401.155)" fill="#fff"/>
    </g>
    <g id="그룹_235" data-name="그룹 235" transform="translate(196 -14)">
      <path id="패스_4643" data-name="패스 4643" d="M1426.062,924.661c-.9-3.094-2.621-8.822-7.412-7.848a1.421,1.421,0,0,0-1.185.848c-.307.909.769,1.433,1.6.754,1.321-1.085,3.592.9,1.325,1.821-4.451,1.814-6.963-3.185-2.573-5.227,4.468-2.078,9.849,4.033,11.112,8.163-1.135-.443-.971-.5-2.1-.946a5.4,5.4,0,0,1-.759,2.435" transform="translate(12523.684 -437.811)" fill="#fff"/>
      <path id="패스_4644" data-name="패스 4644" d="M1393.525,872.008a3.758,3.758,0,0,0,.92-6.435c-1.813-1.2-3.976-1.3-4.783-.825a.742.742,0,0,0,.362,1.37c1.1-.016,1.289-.7,1.979.138,1.606,1.96-5.621,2.56-4.48-1.726.439-1.648,3-2.372,5.91-1.457,2.416.76,5.364,2.694,4.843,5.771a6.467,6.467,0,0,1-1.466,3.518c-1.7,1.9-2.5,1.721-3.284-.356" transform="translate(12548.904 -391.252)" fill="#fff"/>
      <path id="패스_4645" data-name="패스 4645" d="M1378.283,833.574c1.325.3,5.547,0,5.411,3.17-.033.775-.891,1.321-.906,1.358-.184.407.71,1.468.785,1.544,2.126-1.429,2.423-3.174,1.8-4.508a5.668,5.668,0,0,0-4.257-3.2c-.876-.149-2.843-.364-3-.038s.464,1.294.167,1.671" transform="translate(12557.254 -363.505)" fill="#fff"/>
    </g>
  </g>
</svg>
