<svg id="icon5" xmlns="http://www.w3.org/2000/svg" xmlns:xlink="http://www.w3.org/1999/xlink" width="63.628" height="63.5" viewBox="0 0 63.628 63.5">
  <defs>
    <clipPath id="clip-path">
      <rect id="사각형_195" data-name="사각형 195" width="63.628" height="63.5" fill="#1570ef"/>
    </clipPath>
  </defs>
  <g id="그룹_53" data-name="그룹 53" clip-path="url(#clip-path)">
    <path id="패스_39" data-name="패스 39" d="M99.938,270.3v3a1.473,1.473,0,0,0,1.26-1.457c0-.7-.419-1.121-1.26-1.539" transform="translate(-81.806 -221.261)" fill="#1570ef"/>
    <path id="패스_40" data-name="패스 40" d="M82.351,225.245c0,.533.252.979,1.231,1.539v-2.939a1.42,1.42,0,0,0-1.231,1.4" transform="translate(-67.41 -183.233)" fill="#1570ef"/>
    <path id="패스_41" data-name="패스 41" d="M17.149,160.952A17.149,17.149,0,1,0,34.3,178.1a17.149,17.149,0,0,0-17.149-17.149m.982,27.286V190.7h-1.96v-2.438a7.506,7.506,0,0,1-5.206-2.343,2.133,2.133,0,0,1,.531-3.265l.266-.152a2.142,2.142,0,0,1,2.639.4,3.086,3.086,0,0,0,1.77.941v-3.863c-.112-.057-.252-.087-.364-.142-2.436-.979-5.35-2.352-5.35-6.1,0-3.639,2.747-5.517,5.714-5.8V165.5h1.96v2.5a6.872,6.872,0,0,1,3.988,1.831,2.133,2.133,0,0,1-.421,3.368l-.135.08a2.142,2.142,0,0,1-2.523-.3,2.6,2.6,0,0,0-.909-.525v3.781c2.438,1.036,5.741,1.96,5.741,6.05,0,3.5-2.408,5.572-5.741,5.963" transform="translate(0 -131.751)" fill="#1570ef"/>
    <path id="패스_42" data-name="패스 42" d="M105.894,25.538A27.035,27.035,0,0,0,99.083,9.125a27.452,27.452,0,0,0-2.269-2.268A27.026,27.026,0,0,0,80.4.047Q79.6,0,78.8,0t-1.6.047A27.025,27.025,0,0,0,60.782,6.858a27.406,27.406,0,0,0-2.268,2.268A27.034,27.034,0,0,0,51.7,25.538c0,.084-.01.169-.013.253a21.8,21.8,0,0,1,4.122-1.114,23.018,23.018,0,0,1,5.548-12.7l2.232,2.232a1.609,1.609,0,0,0,2.276-2.276L63.635,9.7A23.014,23.014,0,0,1,77.188,4.08V7.246a1.609,1.609,0,1,0,3.219,0V4.08A23.023,23.023,0,0,1,93.961,9.7l-2.232,2.232A1.609,1.609,0,1,0,94,14.211l2.232-2.232a23.167,23.167,0,0,1,3.88,6.22,22.908,22.908,0,0,1,1.743,7.332H98.693a1.609,1.609,0,0,0,0,3.219h3.167A23.014,23.014,0,0,1,96.237,42.3L94,40.071a1.61,1.61,0,1,0-2.276,2.277l2.232,2.232a23.173,23.173,0,0,1-6.222,3.88,22.838,22.838,0,0,1-6.629,1.682,21.792,21.792,0,0,1-1.143,4.117c.145-.006.29-.015.433-.022a27.038,27.038,0,0,0,16.415-6.813,27.668,27.668,0,0,0,2.268-2.266,27.04,27.04,0,0,0,6.811-16.414c.03-.53.047-1.066.047-1.6s-.016-1.073-.047-1.6" transform="translate(-42.312)" fill="#1570ef"/>
    <path id="패스_43" data-name="패스 43" d="M202.686,84.068h-7.233V73.119a1.609,1.609,0,0,0-3.219,0V85.678a1.61,1.61,0,0,0,1.609,1.609h8.842a1.609,1.609,0,0,0,0-3.219" transform="translate(-157.357 -58.536)" fill="#1570ef"/>
  </g>
</svg>
