<svg xmlns="http://www.w3.org/2000/svg" xmlns:xlink="http://www.w3.org/1999/xlink" width="24" height="24" viewBox="0 0 24 24">
  <defs>
    <clipPath id="clip-path">
      <rect id="사각형_56" data-name="사각형 56" width="24" height="24" transform="translate(783 2689)" fill="#fff" stroke="#707070" stroke-width="1"/>
    </clipPath>
  </defs>
  <g id="icon2" transform="translate(-783 -2689)" clip-path="url(#clip-path)">
    <path id="earth-fill" d="M14.4,2.4a12,12,0,1,1-12,12A12,12,0,0,1,14.4,2.4Zm4.805,13.053a1.538,1.538,0,0,0-1.851-.9c-2.149.341-2.387.717-2.489,1.335l-.029.188-.029.2c-.117.82-.113,1.13.264,1.525a14.76,14.76,0,0,1,2.7,3.413,4,4,0,0,1,.242,2.3A9.822,9.822,0,0,0,21.8,20.827a5.937,5.937,0,0,0,.228-1.685v-.126c0-1.107,0-1.612-.782-2.059-.33-.188-.576-.3-.774-.39a2.206,2.206,0,0,1-1.126-.908C19.3,15.591,19.251,15.523,19.205,15.453ZM14.4,4.6A9.772,9.772,0,0,0,7.325,7.619a1.513,1.513,0,0,1,.525.64,3.825,3.825,0,0,1,.245,1.614,2.6,2.6,0,0,0,.126,1.038c.173.37.92.527,1.579.665.235.05.478.1.7.161a3.3,3.3,0,0,1,1.454,1.151,3.317,3.317,0,0,0,.5.517,1.223,1.223,0,0,0,.35-.6.7.7,0,0,0-.055-.623,3.513,3.513,0,0,1-.427-2.879c.327-.887,1.347-.821,2.093-.773a4.357,4.357,0,0,0,.736.011c.747-.094.977-1.229,1.139-1.452a10.657,10.657,0,0,1,2.089-1.651A9.766,9.766,0,0,0,14.4,4.6Z" transform="translate(780.6 2686.6)" fill="#fff"/>
  </g>
</svg>
