<svg id="icon1" xmlns="http://www.w3.org/2000/svg" xmlns:xlink="http://www.w3.org/1999/xlink" width="66.401" height="63.037" viewBox="0 0 66.401 63.037">
  <defs>
    <clipPath id="clip-path">
      <rect id="사각형_297" data-name="사각형 297" width="66.401" height="63.037" fill="#1570ef"/>
    </clipPath>
  </defs>
  <g id="그룹_244" data-name="그룹 244" clip-path="url(#clip-path)">
    <path id="패스_4661" data-name="패스 4661" d="M58.555,1.545a2.281,2.281,0,0,0-2.9-1.421L1.545,18.652a2.283,2.283,0,0,0-1.421,2.9l1.443,4.213a5.1,5.1,0,0,1,4.378-2.489h8.361a10.913,10.913,0,0,0-.433-5.424l31.552-10.8a10.97,10.97,0,0,0,13.932,6.824l2.765,8.076a10.942,10.942,0,0,0-2.649,1.328H63.14A5.076,5.076,0,0,1,66.4,24.46Z" transform="translate(-0.001 0)" fill="#1570ef"/>
    <path id="패스_4662" data-name="패스 4662" d="M279.522,98.3a2.7,2.7,0,1,1-3.428-1.679,2.7,2.7,0,0,1,3.428,1.679" transform="translate(-223.727 -78.693)" fill="#1570ef"/>
    <path id="패스_4663" data-name="패스 4663" d="M144.267,94.321a1.143,1.143,0,0,1-.122.124h8.673a10.786,10.786,0,0,0-20.342,0h5.371a4.066,4.066,0,0,1,2.193-2.178l-.49-1.429,1.151-.394.5,1.462a4.25,4.25,0,0,1,2.747.294,1.291,1.291,0,0,1,.418,2.006Z" transform="translate(-108.063 -71.168)" fill="#1570ef"/>
    <path id="패스_4664" data-name="패스 4664" d="M79.344,141.577H22.15a2.284,2.284,0,0,0-2.284,2.283v32.381a2.284,2.284,0,0,0,2.284,2.283H79.344a2.283,2.283,0,0,0,2.283-2.283V143.86a2.283,2.283,0,0,0-2.283-2.283m-.953,22.742a10.969,10.969,0,0,0-10.97,10.97H34.072a10.969,10.969,0,0,0-10.97-10.97v-8.536a10.969,10.969,0,0,0,10.97-10.97h33.35a10.969,10.969,0,0,0,10.97,10.97Z" transform="translate(-16.205 -115.487)" fill="#1570ef"/>
    <path id="패스_4665" data-name="패스 4665" d="M285.212,229.88a2.7,2.7,0,1,1-2.7-2.7,2.7,2.7,0,0,1,2.7,2.7" transform="translate(-228.25 -185.316)" fill="#1570ef"/>
    <path id="패스_4666" data-name="패스 4666" d="M72.217,229.88a2.7,2.7,0,1,1-2.7-2.7,2.7,2.7,0,0,1,2.7,2.7" transform="translate(-54.506 -185.316)" fill="#1570ef"/>
    <path id="패스_4667" data-name="패스 4667" d="M180.052,223.385c0,.33.156.608.764.955v-1.822a.882.882,0,0,0-.764.868" transform="translate(-146.872 -181.512)" fill="#1570ef"/>
    <path id="패스_4668" data-name="패스 4668" d="M190.789,250.868v1.857a.911.911,0,0,0,.781-.9c0-.434-.261-.694-.781-.955" transform="translate(-155.631 -204.638)" fill="#1570ef"/>
    <path id="패스_4669" data-name="패스 4669" d="M139.7,183.3a10.785,10.785,0,1,0,10.785,10.785A10.785,10.785,0,0,0,139.7,183.3m.617,17.069v1.527H139.1v-1.51a4.655,4.655,0,0,1-3.246-1.473,1.294,1.294,0,0,1,.312-1.982l.225-.13a1.3,1.3,0,0,1,1.6.25,1.917,1.917,0,0,0,1.107.593v-2.4c-.069-.035-.156-.052-.226-.087-1.51-.607-3.315-1.458-3.315-3.784a3.577,3.577,0,0,1,3.541-3.593v-1.51h1.215v1.545a4.252,4.252,0,0,1,2.5,1.168,1.292,1.292,0,0,1-.255,2.034l-.131.077a1.3,1.3,0,0,1-1.542-.181,1.61,1.61,0,0,0-.576-.337v2.343c1.51.642,3.558,1.215,3.558,3.749a3.637,3.637,0,0,1-3.558,3.7" transform="translate(-105.159 -149.52)" fill="#1570ef"/>
  </g>
</svg>
