<svg id="icon5" xmlns="http://www.w3.org/2000/svg" width="54.35" height="64" viewBox="0 0 54.35 64">
  <rect id="사각형_192" data-name="사각형 192" width="12.452" height="5.585" transform="translate(32.431 58.415)" fill="#1570ef"/>
  <g id="그룹_49" data-name="그룹 49">
    <g id="그룹_51" data-name="그룹 51">
      <path id="패스_34" data-name="패스 34" d="M199.274,116.181V136.4a7.339,7.339,0,0,1-1.981,5.015l-7.146,7.629H177.354v-9.123a6.937,6.937,0,0,1,1.883-4.753l8.4-8.944c.9-.963,1.961-1.353,3.008-.546a2.628,2.628,0,0,1,.239,3.241L184.772,138a1.245,1.245,0,1,0,2.066,1.392l6.966-10.341a3.522,3.522,0,0,0-.784-4.746l-.462-.356a1.081,1.081,0,0,1-.31-1.335l3.488-7.058a1.66,1.66,0,0,1,.385-.511,2.185,2.185,0,0,1,1.578-.568l.028,0a1.7,1.7,0,0,1,1.546,1.706" transform="translate(-144.924 -93.538)" fill="#1570ef"/>
      <rect id="사각형_193" data-name="사각형 193" width="12.452" height="5.585" transform="translate(9.468 58.415)" fill="#1570ef"/>
      <path id="패스_35" data-name="패스 35" d="M0,116.181V136.4a7.339,7.339,0,0,0,1.981,5.015l7.146,7.629H21.92v-9.123a6.937,6.937,0,0,0-1.883-4.753l-8.4-8.944c-.9-.963-1.961-1.353-3.008-.546a2.628,2.628,0,0,0-.239,3.241L14.5,138a1.245,1.245,0,1,1-2.066,1.392L5.47,129.049a3.522,3.522,0,0,1,.784-4.746l.462-.356a1.081,1.081,0,0,0,.31-1.335l-3.488-7.058a1.663,1.663,0,0,0-.385-.511,2.185,2.185,0,0,0-1.578-.568l-.028,0A1.7,1.7,0,0,0,0,116.181" transform="translate(0 -93.538)" fill="#1570ef"/>
      <path id="패스_36" data-name="패스 36" d="M153.564,104.041v2.76a1.358,1.358,0,0,0,1.161-1.342c0-.645-.386-1.033-1.161-1.418" transform="translate(-125.484 -85.016)" fill="#1570ef"/>
      <path id="패스_37" data-name="패스 37" d="M137.488,62.867c0,.491.232.9,1.134,1.418V61.577a1.308,1.308,0,0,0-1.134,1.29" transform="translate(-112.347 -50.317)" fill="#1570ef"/>
      <path id="패스_38" data-name="패스 38" d="M74.672,0A16.547,16.547,0,1,0,91.218,16.547,16.547,16.547,0,0,0,74.672,0m.9,25.886v2.271H73.771V25.911a6.914,6.914,0,0,1-4.8-2.158,1.965,1.965,0,0,1,.489-3.008l.245-.14a1.973,1.973,0,0,1,2.431.364,2.844,2.844,0,0,0,1.63.867V18.277c-.1-.053-.232-.08-.335-.131-2.244-.9-4.929-2.166-4.929-5.624,0-3.353,2.531-5.082,5.264-5.339V4.937h1.806v2.3a6.331,6.331,0,0,1,3.674,1.687,1.965,1.965,0,0,1-.388,3.1l-.125.074a1.973,1.973,0,0,1-2.324-.281,2.4,2.4,0,0,0-.838-.483v3.483c2.246.955,5.289,1.806,5.289,5.573,0,3.224-2.219,5.133-5.289,5.493" transform="translate(-47.496)" fill="#1570ef"/>
    </g>
  </g>
</svg>
