<svg id="icon1" xmlns="http://www.w3.org/2000/svg" xmlns:xlink="http://www.w3.org/1999/xlink" width="64" height="64" viewBox="0 0 64 64">
  <defs>
    <clipPath id="clip-path">
      <rect id="사각형_286" data-name="사각형 286" width="64" height="64" fill="#1570ef"/>
    </clipPath>
  </defs>
  <g id="그룹_239" data-name="그룹 239" clip-path="url(#clip-path)">
    <path id="패스_4647" data-name="패스 4647" d="M276.535,142.3a5.625,5.625,0,0,1-10.927,1.875h-2.25v-3.75h2.25a5.625,5.625,0,0,1,10.927,1.875" transform="translate(-212.535 -110.298)" fill="#1570ef"/>
    <path id="패스_4648" data-name="패스 4648" d="M13.178,140.423v3.75h-2.25a5.625,5.625,0,1,1,0-3.75Z" transform="translate(0 -110.298)" fill="#1570ef"/>
    <path id="패스_4649" data-name="패스 4649" d="M147.922,277.2a5.625,5.625,0,1,1-7.5-5.3v-.745a36.062,36.062,0,0,0,3.75,0v.745a5.634,5.634,0,0,1,3.75,5.3" transform="translate(-110.297 -218.829)" fill="#1570ef"/>
    <path id="패스_4650" data-name="패스 4650" d="M257.23,252.123a5.625,5.625,0,1,1-10.7-2.424l-7.094-7.092a11.4,11.4,0,0,0,2.776-2.529l6.969,6.97a5.631,5.631,0,0,1,8.049,5.075" transform="translate(-193.23 -193.748)" fill="#1570ef"/>
    <path id="패스_4651" data-name="패스 4651" d="M147.922,5.625a5.634,5.634,0,0,1-3.75,5.3v.745a36.009,36.009,0,0,0-3.75,0v-.745a5.625,5.625,0,1,1,7.5-5.3" transform="translate(-110.297)" fill="#1570ef"/>
    <path id="패스_4652" data-name="패스 4652" d="M257.2,5.625a5.631,5.631,0,0,1-8.049,5.075l-6.974,6.975a11.757,11.757,0,0,0-2.778-2.527l7.1-7.1a5.625,5.625,0,1,1,10.7-2.424" transform="translate(-193.204)" fill="#1570ef"/>
    <path id="패스_4653" data-name="패스 4653" d="M17.8,15.148a11.761,11.761,0,0,0-2.778,2.527L8.049,10.7A5.625,5.625,0,1,1,10.7,8.049Z" fill="#1570ef"/>
    <path id="패스_4654" data-name="패스 4654" d="M10.7,249.7a5.625,5.625,0,1,1-2.651-2.651l6.969-6.97a11.4,11.4,0,0,0,2.776,2.529Z" transform="translate(0 -193.747)" fill="#1570ef"/>
    <path id="패스_4655" data-name="패스 4655" d="M102.788,181.8c8.919,0,14.713-2.973,15.073-5.144v-2.509c-7.329,4.638-22.813,4.641-30.146,0v2.509c.36,2.171,6.154,5.144,15.073,5.144" transform="translate(-70.788 -140.54)" fill="#1570ef"/>
    <path id="패스_4656" data-name="패스 4656" d="M102.788,140.75c8.919,0,14.713-2.973,15.073-5.144V133.1c-7.329,4.638-22.813,4.641-30.146,0v2.51c.36,2.171,6.154,5.144,15.073,5.144" transform="translate(-70.788 -107.411)" fill="#1570ef"/>
    <path id="패스_4657" data-name="패스 4657" d="M87.715,215.2v.282c0,7.155,16.255,9.489,25.14,5.7,4.355-1.856,5.005-4.37,5.005-5.7V215.2c-7.329,4.638-22.813,4.641-30.146,0" transform="translate(-70.788 -173.669)" fill="#1570ef"/>
    <path id="패스_4658" data-name="패스 4658" d="M102.712,86.826c-9.212,0-15.091-3.172-15.091-5.356s5.879-5.356,15.091-5.356S117.8,79.286,117.8,81.47s-5.879,5.356-15.091,5.356" transform="translate(-70.712 -61.426)" fill="#1570ef"/>
  </g>
</svg>
