<svg id="icon1" xmlns="http://www.w3.org/2000/svg" xmlns:xlink="http://www.w3.org/1999/xlink" width="64" height="60.763" viewBox="0 0 64 60.763">
  <defs>
    <clipPath id="clip-path">
      <rect id="사각형_300" data-name="사각형 300" width="64" height="60.763" fill="#1570ef"/>
    </clipPath>
  </defs>
  <g id="그룹_250" data-name="그룹 250" clip-path="url(#clip-path)">
    <path id="패스_4680" data-name="패스 4680" d="M118.444,188.518a6.77,6.77,0,0,1-3.375,5.849L97.54,204.487a17.319,17.319,0,0,1-13.376,1.64l-7.2-2.067h-.014l-.259-.079-10.627-3.249v-3.76l11.653,3.563.514.148,6.925,1.988a13.714,13.714,0,0,0,10.586-1.3l17.53-10.121a3.153,3.153,0,1,0-3.153-5.46l-8.183,4.724-.167.611h-.174a6.047,6.047,0,0,1-5.3,3.14H81.4a1.8,1.8,0,1,1,0-3.6h14.9a2.451,2.451,0,0,0,2.364-1.805l.027-.1a2.4,2.4,0,0,0,.06-.541,2.38,2.38,0,0,0-.719-1.693,2.588,2.588,0,0,0-1.817-.765h-11.2a2.973,2.973,0,0,1-2.335-1.128,10.23,10.23,0,0,0-8.051-3.849,13.541,13.541,0,0,0-8.554,3.941v-4.571c0-.029,0-.058,0-.086a16.673,16.673,0,0,1,8.556-2.88A13.8,13.8,0,0,1,85.3,182.17h10.91a6.211,6.211,0,0,1,4.363,1.821,6.03,6.03,0,0,1,1.451,2.32l6.3-3.636a6.75,6.75,0,0,1,10.124,5.843" transform="translate(-54.444 -146.028)" fill="#1570ef"/>
    <path id="패스_4681" data-name="패스 4681" d="M11.62,182.655a2.414,2.414,0,0,0-2.412-2.329H2.414A2.414,2.414,0,0,0,0,182.741v21.086a2.414,2.414,0,0,0,2.414,2.415H9.207a2.414,2.414,0,0,0,2.414-2.415V182.741c0-.029,0-.058,0-.086m-7.076,4.814a2.033,2.033,0,1,1,2.033-2.033,2.033,2.033,0,0,1-2.033,2.033" transform="translate(0 -148.61)" fill="#1570ef"/>
    <path id="패스_4682" data-name="패스 4682" d="M182.343,73.863a8.3,8.3,0,1,1-8.3-8.3,8.3,8.3,0,0,1,8.3,8.3" transform="translate(-136.584 -54.027)" fill="#1570ef"/>
    <path id="패스_4683" data-name="패스 4683" d="M256.61,108.011a8.305,8.305,0,0,1-15.679,3.822,11,11,0,0,0,5.856-11.986,8.306,8.306,0,0,1,9.823,8.164" transform="translate(-198.555 -82.17)" fill="#1570ef"/>
    <path id="패스_4684" data-name="패스 4684" d="M114.644,90.372a8.3,8.3,0,1,1-2.233-14.989,10.988,10.988,0,0,0,2.233,14.989" transform="translate(-83.945 -61.87)" fill="#1570ef"/>
    <path id="패스_4685" data-name="패스 4685" d="M144.465,22.835h0a1.4,1.4,0,0,1-1.4-1.4V15.29a1.4,1.4,0,0,1,2.793,0v6.149a1.4,1.4,0,0,1-1.4,1.4" transform="translate(-117.905 -11.45)" fill="#1570ef"/>
    <path id="패스_4686" data-name="패스 4686" d="M188.12,8.941h0a1.4,1.4,0,0,1-1.4-1.4V1.4a1.4,1.4,0,0,1,2.793,0V7.545a1.4,1.4,0,0,1-1.4,1.4" transform="translate(-153.882)" fill="#1570ef"/>
    <path id="패스_4687" data-name="패스 4687" d="M232.351,18.667h0a1.4,1.4,0,0,1-1.4-1.4V11.122a1.4,1.4,0,1,1,2.793,0v6.149a1.4,1.4,0,0,1-1.4,1.4" transform="translate(-190.334 -8.015)" fill="#1570ef"/>
    <path id="패스_4688" data-name="패스 4688" d="M278.961,44.086h0a1.4,1.4,0,0,1-1.4-1.4V36.541a1.4,1.4,0,0,1,2.793,0V42.69a1.4,1.4,0,0,1-1.4,1.4" transform="translate(-228.746 -28.964)" fill="#1570ef"/>
  </g>
</svg>
