<svg id="icon3" xmlns="http://www.w3.org/2000/svg" xmlns:xlink="http://www.w3.org/1999/xlink" width="65" height="65" viewBox="0 0 65 65">
  <defs>
    <clipPath id="clip-path">
      <rect id="사각형_318" data-name="사각형 318" width="65" height="65" fill="#1570ef"/>
    </clipPath>
  </defs>
  <g id="그룹_264" data-name="그룹 264" clip-path="url(#clip-path)">
    <path id="패스_4727" data-name="패스 4727" d="M32.5,0A32.5,32.5,0,1,0,65,32.5,32.537,32.537,0,0,0,32.5,0M59.015,40.344A27.77,27.77,0,0,1,40.963,58.823a28.7,28.7,0,0,0,1.984-4.187,45,45,0,0,0,1.666-5.39,20.594,20.594,0,0,1-5.949,2.99c-.08.221-.16.443-.243.658C36.7,57.37,34.43,60.15,32.5,60.15s-4.2-2.78-5.922-7.255c-.083-.215-.163-.437-.243-.658a20.6,20.6,0,0,1-5.949-2.99,45.071,45.071,0,0,0,1.666,5.39,28.679,28.679,0,0,0,1.984,4.186A27.769,27.769,0,0,1,5.985,40.344a36.794,36.794,0,0,0,9.1,3.286,20.555,20.555,0,0,1-2.55-5.768c-.166-.056-.333-.111-.5-.168C7.072,35.947,4.849,33.826,4.849,32.5s2.223-3.447,7.189-5.195c.163-.057.33-.113.5-.168a20.546,20.546,0,0,1,2.55-5.768,36.8,36.8,0,0,0-9.1,3.286A27.77,27.77,0,0,1,24.036,6.175a28.673,28.673,0,0,0-1.984,4.187,45.06,45.06,0,0,0-1.666,5.39,20.61,20.61,0,0,1,5.949-2.99c.08-.221.16-.443.243-.658C28.3,7.628,30.569,4.849,32.5,4.849s4.2,2.78,5.922,7.255c.083.216.163.437.243.658a20.587,20.587,0,0,1,5.949,2.99,44.969,44.969,0,0,0-1.666-5.39,28.673,28.673,0,0,0-1.984-4.187A27.769,27.769,0,0,1,59.015,24.654a36.8,36.8,0,0,0-9.1-3.286,20.545,20.545,0,0,1,2.55,5.768c.166.056.333.111.5.168,4.966,1.747,7.189,3.868,7.189,5.195s-2.223,3.448-7.189,5.195c-.162.058-.33.113-.5.168a20.562,20.562,0,0,1-2.55,5.768,36.787,36.787,0,0,0,9.1-3.286" transform="translate(0 0.001)" fill="#1570ef"/>
    <path id="패스_4728" data-name="패스 4728" d="M99.409,89.733c0,.505.24.931,1.171,1.464V88.4a1.353,1.353,0,0,0-1.171,1.331" transform="translate(-68.997 -61.358)" fill="#1570ef"/>
    <path id="패스_4729" data-name="패스 4729" d="M109.326,114.586v2.848a1.4,1.4,0,0,0,1.2-1.384c0-.665-.4-1.064-1.2-1.464" transform="translate(-75.881 -79.531)" fill="#1570ef"/>
    <path id="패스_4730" data-name="패스 4730" d="M70.9,55.318A15.577,15.577,0,1,0,86.472,70.895,15.576,15.576,0,0,0,70.9,55.318m.946,25.211V82.87H69.978V80.555A7.138,7.138,0,0,1,65,78.3a1.984,1.984,0,0,1,.478-3.038l.345-.2a2.012,2.012,0,0,1,2.475.4,2.94,2.94,0,0,0,1.68.891V72.678c-.106-.053-.24-.08-.346-.133-2.315-.932-5.083-2.235-5.083-5.8,0-3.459,2.607-5.243,5.429-5.509V58.919h1.863v2.368a6.517,6.517,0,0,1,3.839,1.791,1.98,1.98,0,0,1-.39,3.118l-.2.118a2,2,0,0,1-2.365-.278,2.461,2.461,0,0,0-.883-.516v3.593c2.315.985,5.456,1.863,5.456,5.748,0,3.327-2.289,5.3-5.456,5.669" transform="translate(-38.396 -38.395)" fill="#1570ef"/>
  </g>
</svg>
