<svg id="icon1" xmlns="http://www.w3.org/2000/svg" xmlns:xlink="http://www.w3.org/1999/xlink" width="50.617" height="66" viewBox="0 0 50.617 66">
  <defs>
    <clipPath id="clip-path">
      <rect id="사각형_317" data-name="사각형 317" width="50.617" height="66" fill="#1570ef"/>
    </clipPath>
  </defs>
  <g id="그룹_262" data-name="그룹 262" clip-path="url(#clip-path)">
    <path id="패스_4720" data-name="패스 4720" d="M21,254.917c-.015-.017-.032-.031-.048-.047l-3.286-3.019-8.813-8.1L6.25,241.358l-.083-.077a1.6,1.6,0,0,0-2.257.095l-3.489,3.8a1.6,1.6,0,0,0,.095,2.257L15.3,261.019a1.6,1.6,0,0,0,2.255-.094l3.49-3.8a1.6,1.6,0,0,0-.047-2.21m-4.174,3.349a1.619,1.619,0,1,1,1.619-1.619,1.619,1.619,0,0,1-1.619,1.619" transform="translate(0 -195.44)" fill="#1570ef"/>
    <path id="패스_4721" data-name="패스 4721" d="M116.619,167.729a5.852,5.852,0,0,1-1.934,4.344l-.822.739-1.948,1.751-2.3,2.068-1.88,1.69-.54.483a.758.758,0,0,0-.108.151,1.023,1.023,0,0,0-.054.4q-.011.264-.031.527-.039.525-.114,1.046a12.109,12.109,0,0,1-2.183,5.4,11.5,11.5,0,0,1-2.594,2.592,10.61,10.61,0,0,1-3.263,1.586,10.2,10.2,0,0,1-1.817.344c-.015-.016-.031-.031-.048-.046L93.7,187.777c1.145.057,2.189.108,2.354.114,4.407-.009,7.99-4,7.99-8.9v-.041a3.01,3.01,0,0,1,.992-2.243l7.645-6.871a2.836,2.836,0,0,0-3.792-4.219l-5.806,5.217a5.534,5.534,0,0,1-7.253.1l-.9-.764a1.5,1.5,0,1,1,1.942-2.287l.9.762a2.511,2.511,0,0,0,3.3-.047l5.806-5.217a5.837,5.837,0,0,1,9.738,4.341" transform="translate(-76.028 -131.366)" fill="#1570ef"/>
    <path id="패스_4722" data-name="패스 4722" d="M45.918,130.436v3H42.3a3.246,3.246,0,0,0-3.19,2.653l-3.357,18.062-2.606-2.395,3.011-16.215a6.249,6.249,0,0,1,6.142-5.106Z" transform="translate(-26.893 -105.84)" fill="#1570ef"/>
    <path id="패스_4723" data-name="패스 4723" d="M138.252,0h-25.3a2.217,2.217,0,0,0-2.216,2.218V34.524a3.283,3.283,0,0,1,1.127.627l.9.759a.707.707,0,0,0,.462.171l.064,0V11.595a9.044,9.044,0,0,0,9.044-9.044h6.547a9.043,9.043,0,0,0,9.044,9.044v26.5a9.044,9.044,0,0,0-9.044,9.045h-4.829c-.821.737-1.4,1.256-1.409,1.266,0,.08-.011.159-.017.24-.027.353-.063.7-.11,1.043h15.74a2.217,2.217,0,0,0,2.218-2.216V2.218A2.218,2.218,0,0,0,138.252,0" transform="translate(-89.853)" fill="#1570ef"/>
    <path id="패스_4724" data-name="패스 4724" d="M182.347,39.058a2.189,2.189,0,1,1-2.189-2.189,2.189,2.189,0,0,1,2.189,2.189" transform="translate(-144.41 -29.917)" fill="#1570ef"/>
    <path id="패스_4725" data-name="패스 4725" d="M156.908,97.345a7.9,7.9,0,0,1-4.757,6.9c-.141-.189-.29-.371-.449-.548a7.643,7.643,0,0,0-10.784-.576l-.369.332a7.542,7.542,0,0,1-3.421-6.107c0-4.458,4.428-8.071,9.89-8.071s9.89,3.613,9.89,8.071" transform="translate(-111.27 -72.439)" fill="#1570ef"/>
    <path id="패스_4726" data-name="패스 4726" d="M167.738,114.168h1.221v.971h-1.207a3.734,3.734,0,0,1-1.143,2.563,1.067,1.067,0,0,1-1.641-.258l-.08-.137a1.053,1.053,0,0,1,.21-1.295,1.531,1.531,0,0,0,.462-.873h-1.914c-.028.056-.041.125-.069.18-.486,1.207-1.165,2.649-3.024,2.649a2.859,2.859,0,0,1-2.871-2.83h-1.207v-.971h1.235a3.411,3.411,0,0,1,.882-1.948,1.07,1.07,0,0,1,1.7.193l.022.038a1.093,1.093,0,0,1-.15,1.277,1.3,1.3,0,0,0-.251.44h1.873c.513-1.207.971-2.843,3-2.843a2.906,2.906,0,0,1,2.955,2.843m-6.408.971h-1.456a.7.7,0,0,0,.694.61c.263,0,.485-.125.763-.61m3.481-1.6c-.347,0-.555.208-.763.624h1.484a.729.729,0,0,0-.721-.624" transform="translate(-126.968 -90.332)" fill="#1570ef"/>
  </g>
</svg>
