<svg id="icon3" xmlns="http://www.w3.org/2000/svg" xmlns:xlink="http://www.w3.org/1999/xlink" width="100" height="100.004" viewBox="0 0 100 100.004">
  <defs>
    <clipPath id="clip-path">
      <rect id="사각형_128" data-name="사각형 128" width="100" height="100.004" fill="#1570ef"/>
    </clipPath>
  </defs>
  <g id="그룹_32" data-name="그룹 32" clip-path="url(#clip-path)">
    <path id="패스_12" data-name="패스 12" d="M89.381,12.939a6.468,6.468,0,1,1,4.575-1.892,6.448,6.448,0,0,1-4.575,1.892m0-10.141a3.674,3.674,0,1,0,2.6,1.076,3.649,3.649,0,0,0-2.6-1.076" transform="translate(-39.455)" fill="#1570ef"/>
    <path id="패스_13" data-name="패스 13" d="M93.982,30.112a1.4,1.4,0,0,1-1.4-1.4V21.719a1.4,1.4,0,1,1,2.8,0v6.994a1.4,1.4,0,0,1-1.4,1.4" transform="translate(-44.057 -9.67)" fill="#1570ef"/>
    <path id="패스_14" data-name="패스 14" d="M89.656,179.046a6.472,6.472,0,1,1,4.575-1.9,6.431,6.431,0,0,1-4.575,1.9m0-10.144a3.674,3.674,0,1,0,2.6,1.076,3.65,3.65,0,0,0-2.6-1.076" transform="translate(-39.584 -79.041)" fill="#1570ef"/>
    <path id="패스_15" data-name="패스 15" d="M94.26,160.965a1.4,1.4,0,0,1-1.4-1.4V151.89a1.4,1.4,0,0,1,2.8,0v7.676a1.4,1.4,0,0,1-1.4,1.4" transform="translate(-44.189 -71.612)" fill="#1570ef"/>
    <path id="패스_16" data-name="패스 16" d="M6.468,96.132a6.467,6.467,0,1,1,4.576-1.892,6.448,6.448,0,0,1-4.576,1.892m-2.6-9.065a3.673,3.673,0,1,0,5.195,0,3.677,3.677,0,0,0-5.195,0" transform="translate(0 -39.59)" fill="#1570ef"/>
    <path id="패스_17" data-name="패스 17" d="M28.708,95.665H21.713a1.4,1.4,0,1,1,0-2.8h6.994a1.4,1.4,0,0,1,0,2.8" transform="translate(-9.667 -44.192)" fill="#1570ef"/>
    <path id="패스_18" data-name="패스 18" d="M172.569,95.855a6.472,6.472,0,1,1,4.575-1.9,6.428,6.428,0,0,1-4.575,1.9m0-10.144a3.674,3.674,0,1,0,2.6,1.076,3.65,3.65,0,0,0-2.6-1.076" transform="translate(-79.039 -39.455)" fill="#1570ef"/>
    <path id="패스_19" data-name="패스 19" d="M160.18,95.387h-6.994a1.4,1.4,0,1,1,0-2.8h6.994a1.4,1.4,0,1,1,0,2.8" transform="translate(-72.229 -44.059)" fill="#1570ef"/>
    <path id="패스_20" data-name="패스 20" d="M148.145,37.169a6.471,6.471,0,1,1,6.471-6.471,6.478,6.478,0,0,1-6.471,6.471m0-10.144a3.674,3.674,0,1,0,3.674,3.674,3.678,3.678,0,0,0-3.674-3.674" transform="translate(-67.416 -11.529)" fill="#1570ef"/>
    <path id="패스_21" data-name="패스 21" d="M134.867,49.656a1.4,1.4,0,0,1-.989-2.387l5.428-5.428a1.4,1.4,0,1,1,1.978,1.978l-5.428,5.429a1.4,1.4,0,0,1-.989.409" transform="translate(-63.512 -19.715)" fill="#1570ef"/>
    <path id="패스_22" data-name="패스 22" d="M30.889,37.169A6.471,6.471,0,1,1,37.359,30.7a6.478,6.478,0,0,1-6.471,6.471m0-10.144A3.674,3.674,0,1,0,34.562,30.7a3.678,3.678,0,0,0-3.674-3.674" transform="translate(-11.619 -11.529)" fill="#1570ef"/>
    <path id="패스_23" data-name="패스 23" d="M48.447,49.656a1.4,1.4,0,0,1-.989-.409L42.03,43.818a1.4,1.4,0,1,1,1.978-1.978l5.428,5.428a1.4,1.4,0,0,1-.989,2.387" transform="translate(-19.805 -19.715)" fill="#1570ef"/>
    <path id="패스_24" data-name="패스 24" d="M148.145,154.818a6.471,6.471,0,1,1,6.471-6.471,6.478,6.478,0,0,1-6.471,6.471m0-10.144a3.674,3.674,0,1,0,3.674,3.674,3.678,3.678,0,0,0-3.674-3.674" transform="translate(-67.416 -67.513)" fill="#1570ef"/>
    <path id="패스_25" data-name="패스 25" d="M140.3,141.9a1.4,1.4,0,0,1-.989-.409l-5.428-5.428a1.4,1.4,0,1,1,1.978-1.978l5.428,5.428a1.4,1.4,0,0,1-.989,2.387" transform="translate(-63.512 -63.609)" fill="#1570ef"/>
    <path id="패스_26" data-name="패스 26" d="M30.889,154.818a6.471,6.471,0,1,1,6.471-6.471,6.478,6.478,0,0,1-6.471,6.471m0-10.144a3.674,3.674,0,1,0,3.674,3.674,3.678,3.678,0,0,0-3.674-3.674" transform="translate(-11.619 -67.513)" fill="#1570ef"/>
    <path id="패스_27" data-name="패스 27" d="M43.019,141.9a1.4,1.4,0,0,1-.989-2.387l5.428-5.428a1.4,1.4,0,0,1,1.978,1.978l-5.428,5.428a1.4,1.4,0,0,1-.989.409" transform="translate(-19.805 -63.609)" fill="#1570ef"/>
    <path id="패스_28" data-name="패스 28" d="M65.837,97.287a3.165,3.165,0,0,1-1-.161,25.079,25.079,0,0,1-5.319-2.488,3.2,3.2,0,0,1-1.39-3.59l1.311-4.572-2.157-2.627-4.766.363a3.2,3.2,0,0,1-3.231-2.074A25.123,25.123,0,0,1,47.9,76.432,3.2,3.2,0,0,1,49.83,73.1l4.388-1.838.7-3.327L51.65,64.447a3.2,3.2,0,0,1-.4-3.817,25.206,25.206,0,0,1,3.584-4.653,3.2,3.2,0,0,1,3.806-.578l4.187,2.277,3.363-1.663.774-4.725a3.206,3.206,0,0,1,2.777-2.65,25.241,25.241,0,0,1,5.873,0A3.2,3.2,0,0,1,78.39,51.3l.748,4.692,3.067,1.47,4.164-2.349a3.2,3.2,0,0,1,3.805.509A25.145,25.145,0,0,1,93.85,60.2a3.2,3.2,0,0,1-.338,3.835l-3.195,3.523.772,3.308L95.53,72.65a3.2,3.2,0,0,1,1.984,3.286,25.122,25.122,0,0,1-1.274,5.733,3.2,3.2,0,0,1-3.2,2.136l-4.748-.289-2.1,2.671,1.391,4.58a3.2,3.2,0,0,1-1.322,3.6,25.135,25.135,0,0,1-5.269,2.593A3.2,3.2,0,0,1,77.32,95.8l-2.744-3.881-3.4.032-2.7,3.949a3.2,3.2,0,0,1-2.64,1.384M57.685,81.019a1.889,1.889,0,0,1,1.46.691L61.9,85.069a1.889,1.889,0,0,1,.356,1.721l-1.443,5.029a.4.4,0,0,0,.174.441,22.3,22.3,0,0,0,4.728,2.211.394.394,0,0,0,.449-.148l2.969-4.34a1.894,1.894,0,0,1,1.542-.822l4.346-.042a1.865,1.865,0,0,1,1.561.8L79.6,94.187a.4.4,0,0,0,.453.14,22.382,22.382,0,0,0,4.683-2.3.4.4,0,0,0,.166-.443l-1.528-5.032A1.892,1.892,0,0,1,83.7,84.83l2.682-3.414a1.867,1.867,0,0,1,1.6-.72l5.224.318a.387.387,0,0,0,.393-.265,22.346,22.346,0,0,0,.715-2.511,22.593,22.593,0,0,0,.418-2.585.4.4,0,0,0-.242-.406l-4.88-1.956a1.894,1.894,0,0,1-1.137-1.323v0l-.986-4.231a1.888,1.888,0,0,1,.442-1.7l3.512-3.873a.394.394,0,0,0,.039-.472,22.4,22.4,0,0,0-3.266-4.072.4.4,0,0,0-.469-.066l-4.575,2.581a1.892,1.892,0,0,1-1.748.057L77.5,58.31A1.887,1.887,0,0,1,76.451,56.9l-.823-5.161a.394.394,0,0,0-.344-.325,22.407,22.407,0,0,0-5.22,0,.4.4,0,0,0-.344.325l-.85,5.184a1.893,1.893,0,0,1-1.028,1.388l-4.2,2.078a1.892,1.892,0,0,1-1.743-.035l-4.6-2.5a.4.4,0,0,0-.469.074,22.38,22.38,0,0,0-3.184,4.135.394.394,0,0,0,.046.47l3.587,3.835a1.894,1.894,0,0,1,.47,1.678L56.858,72.3a1.888,1.888,0,0,1-1.12,1.356L50.91,75.682a.4.4,0,0,0-.236.411,22.321,22.321,0,0,0,1.233,5.072.4.4,0,0,0,.4.258l5.236-.4c.048,0,.1-.005.145-.005m17.37,10.9h0ZM90,67.912l0,0,0,0M63.233,57.9l0,0,0,0m19.4-.233h0m-3.921-1.88h0" transform="translate(-22.781 -23.064)" fill="#1570ef"/>
    <path id="패스_29" data-name="패스 29" d="M86.912,97.148A9.152,9.152,0,1,1,96.063,88a9.161,9.161,0,0,1-9.151,9.152m0-15.506A6.355,6.355,0,1,0,93.267,88a6.362,6.362,0,0,0-6.355-6.355" transform="translate(-37.003 -37.519)" fill="#1570ef"/>
  </g>
</svg>
