<svg id="icon5" xmlns="http://www.w3.org/2000/svg" xmlns:xlink="http://www.w3.org/1999/xlink" width="64" height="60.686" viewBox="0 0 64 60.686">
  <defs>
    <clipPath id="clip-path">
      <rect id="사각형_196" data-name="사각형 196" width="64" height="60.686" fill="#1570ef"/>
    </clipPath>
  </defs>
  <g id="그룹_58" data-name="그룹 58" clip-path="url(#clip-path)">
    <path id="패스_48" data-name="패스 48" d="M65.8,145.266v8.185c-.257-.013-.515-.02-.776-.02a15.069,15.069,0,0,0-15.017,14.046H19.933A3.836,3.836,0,0,1,16.1,163.64V145.266l5.031,1.97a54.239,54.239,0,0,0,11.5,3.1v.159a4.845,4.845,0,0,0,4.838,4.839h6.963a4.846,4.846,0,0,0,4.841-4.839v-.159a54.191,54.191,0,0,0,11.5-3.1Z" transform="translate(-13.305 -120.079)" fill="#1570ef"/>
    <path id="패스_49" data-name="패스 49" d="M55.284,52.066V61.62L46.05,65.237A50.411,50.411,0,0,1,35.963,68.02v-.034a4.841,4.841,0,0,0-4.841-4.841H24.159a4.838,4.838,0,0,0-4.838,4.838v.036A50.412,50.412,0,0,1,9.235,65.237L0,61.62V52.066a1.635,1.635,0,0,1,1.635-1.635H53.649a1.635,1.635,0,0,1,1.635,1.635" transform="translate(0 -41.687)" fill="#1570ef"/>
    <path id="패스_50" data-name="패스 50" d="M141.7,152.149h-6.963a.967.967,0,0,1-.967-.968v-4.12a.967.967,0,0,1,.967-.967H141.7a.967.967,0,0,1,.967.967v4.12a.967.967,0,0,1-.967.968" transform="translate(-110.573 -120.763)" fill="#1570ef"/>
    <path id="패스_51" data-name="패스 51" d="M123.923,5.762V8.744h-3.888V5.651A1.545,1.545,0,0,0,118.491,4.1h-7.983a1.545,1.545,0,0,0-1.544,1.546V8.744h-3.888V5.762A5.764,5.764,0,0,1,110.842,0h7.316a5.764,5.764,0,0,1,5.765,5.762" transform="translate(-86.858)" fill="#1570ef"/>
    <path id="패스_52" data-name="패스 52" d="M289.848,258.182c0,.353.167.648.815,1.019v-1.946a.94.94,0,0,0-.815.927" transform="translate(-239.592 -212.65)" fill="#1570ef"/>
    <path id="패스_53" data-name="패스 53" d="M302.031,289.437v1.984a.976.976,0,0,0,.834-.964c0-.463-.277-.742-.834-1.019" transform="translate(-249.662 -239.252)" fill="#1570ef"/>
    <path id="패스_54" data-name="패스 54" d="M239.729,208.334a12.282,12.282,0,1,0,12.282,12.282,12.282,12.282,0,0,0-12.282-12.282m.65,18.993v1.632h-1.3v-1.614a4.969,4.969,0,0,1-3.446-1.551,1.412,1.412,0,0,1,.351-2.161l.176-.1a1.418,1.418,0,0,1,1.747.262,2.045,2.045,0,0,0,1.172.623v-2.557c-.074-.038-.167-.057-.241-.094-1.613-.648-3.542-1.557-3.542-4.042a3.822,3.822,0,0,1,3.782-3.837v-1.614h1.3v1.652a4.549,4.549,0,0,1,2.64,1.212,1.413,1.413,0,0,1-.279,2.23l-.09.053a1.417,1.417,0,0,1-1.67-.2,1.723,1.723,0,0,0-.6-.347v2.5c1.614.686,3.8,1.3,3.8,4,0,2.317-1.594,3.689-3.8,3.948" transform="translate(-188.01 -172.211)" fill="#1570ef"/>
  </g>
</svg>
