<svg id="icon3" xmlns="http://www.w3.org/2000/svg" width="64" height="55.508" viewBox="0 0 64 55.508">
  <g id="그룹_52" data-name="그룹 52">
    <path id="패스_30" data-name="패스 30" d="M64,257.956v.874a6.478,6.478,0,0,1-6.479,6.479H6.479A6.478,6.478,0,0,1,0,258.83v-.874a1.4,1.4,0,0,1,1.4-1.4H26.22l1.5,1.549h8.549l1.507-1.549H62.6a1.4,1.4,0,0,1,1.4,1.4" transform="translate(0 -209.8)" fill="#1570ef"/>
    <path id="패스_31" data-name="패스 31" d="M73.15,32.322H67.462v4.453h5.2v29.99H25.929V36.775h6.666V32.322H25.443a3.971,3.971,0,0,0-3.967,3.966V67.25a3.972,3.972,0,0,0,3.967,3.967H73.15a3.972,3.972,0,0,0,3.967-3.967V36.288a3.971,3.971,0,0,0-3.967-3.966" transform="translate(-17.562 -26.431)" fill="#1570ef"/>
    <path id="패스_32" data-name="패스 32" d="M121.791,15.791H98.031A3.326,3.326,0,0,1,94.7,12.465V3.327A3.326,3.326,0,0,1,98.031,0h23.761a3.326,3.326,0,0,1,3.327,3.327v9.139a3.326,3.326,0,0,1-3.327,3.326" transform="translate(-77.445)" fill="#1570ef"/>
    <path id="패스_33" data-name="패스 33" d="M184.948,108.8l4.073,3.958a.992.992,0,0,1-.005,1.427l-.979.937a.991.991,0,0,1-1.369,0l-4.226-4.022-1.306,3.232a.674.674,0,0,1-1.266-.043l-3.645-11.149a.674.674,0,0,1,.846-.852l11.386,3.637a.674.674,0,0,1,.072,1.257Z" transform="translate(-144.08 -83.621)" fill="#1570ef"/>
  </g>
</svg>
