<svg id="icon1" xmlns="http://www.w3.org/2000/svg" xmlns:xlink="http://www.w3.org/1999/xlink" width="100" height="99.11" viewBox="0 0 100 99.11">
  <defs>
    <clipPath id="clip-path">
      <rect id="사각형_127" data-name="사각형 127" width="100" height="99.11" fill="#1570ef"/>
    </clipPath>
  </defs>
  <g id="그룹_30" data-name="그룹 30" clip-path="url(#clip-path)">
    <path id="패스_8" data-name="패스 8" d="M46.06,93.836A18.05,18.05,0,0,1,28.076,75.761L28.17,34.7a34.518,34.518,0,1,1,69.036,0V47.572l.088,22.907h7.883a4.609,4.609,0,0,0,4.587-4.62V48.654a4.608,4.608,0,0,0-4.587-4.619h-2.568a1.462,1.462,0,1,1,0-2.925h2.568a7.536,7.536,0,0,1,7.511,7.544V65.86a7.537,7.537,0,0,1-7.511,7.545h-8.7a2.107,2.107,0,0,1-2.1-2.1l-.091-23.729V34.7a31.594,31.594,0,1,0-63.187,0L31,75.764A15.122,15.122,0,0,0,46.06,90.911a1.462,1.462,0,1,1,0,2.925" transform="translate(-12.687)" fill="#1570ef"/>
    <path id="패스_9" data-name="패스 9" d="M10.079,107.3H7.511A7.537,7.537,0,0,1,0,99.754V82.548A7.536,7.536,0,0,1,7.511,75h2.568a1.462,1.462,0,1,1,0,2.925H7.511a4.608,4.608,0,0,0-4.586,4.619V99.754a4.608,4.608,0,0,0,4.586,4.62h2.568a1.462,1.462,0,0,1,0,2.925" transform="translate(0 -33.894)" fill="#1570ef"/>
    <path id="패스_10" data-name="패스 10" d="M71.838,169.715H65.805a6.736,6.736,0,0,1,0-13.473h6.032a6.736,6.736,0,0,1,0,13.473m-6.032-10.548a3.812,3.812,0,0,0,0,7.624h6.032a3.812,3.812,0,0,0,0-7.624Z" transform="translate(-26.699 -70.605)" fill="#1570ef"/>
    <path id="패스_11" data-name="패스 11" d="M55.9,30.538a1.462,1.462,0,0,1-1.18-2.325,24.78,24.78,0,0,1,40.025,0,1.462,1.462,0,0,1-2.361,1.727,21.856,21.856,0,0,0-35.3,0,1.46,1.46,0,0,1-1.182.6" transform="translate(-24.599 -8.154)" fill="#1570ef"/>
  </g>
</svg>
