<svg id="icon2" xmlns="http://www.w3.org/2000/svg" xmlns:xlink="http://www.w3.org/1999/xlink" width="55.379" height="64" viewBox="0 0 55.379 64">
  <defs>
    <clipPath id="clip-path">
      <rect id="사각형_298" data-name="사각형 298" width="55.379" height="64" fill="#1570ef"/>
    </clipPath>
  </defs>
  <g id="그룹_246" data-name="그룹 246" clip-path="url(#clip-path)">
    <path id="패스_4670" data-name="패스 4670" d="M165.633,11.086V7.179a2.688,2.688,0,0,1,.94.542,2.213,2.213,0,0,0,2.607.315l.14-.083a2.2,2.2,0,0,0,.435-3.481,7.1,7.1,0,0,0-4.121-1.892V0h-2.026V2.52c-3.066.289-5.9,2.229-5.9,5.99,0,3.879,3.011,5.3,5.529,6.309.116.057.26.087.376.146v3.993a3.189,3.189,0,0,1-1.829-.973,2.214,2.214,0,0,0-2.727-.409l-.275.157a2.2,2.2,0,0,0-.549,3.374,7.758,7.758,0,0,0,5.38,2.421v2.52h2.026V23.5c3.444-.4,5.933-2.546,5.933-6.163,0-4.226-3.414-5.181-5.933-6.252m-2.026-.955c-1.012-.579-1.272-1.04-1.272-1.591a1.468,1.468,0,0,1,1.272-1.447Zm2.026,8.77V15.8c.87.433,1.3.867,1.3,1.591a1.523,1.523,0,0,1-1.3,1.506" transform="translate(-128.838)" fill="#1570ef"/>
    <path id="패스_4671" data-name="패스 4671" d="M10.084,267.175H0V249.889a1.248,1.248,0,0,1,1.248-1.248H8.835a1.248,1.248,0,0,1,1.248,1.248Z" transform="translate(0 -203.175)" fill="#1570ef"/>
    <path id="패스_4672" data-name="패스 4672" d="M92.655,229.4H82.571V203.663a1.248,1.248,0,0,1,1.248-1.248h7.587a1.248,1.248,0,0,1,1.248,1.248Z" transform="translate(-67.472 -165.402)" fill="#1570ef"/>
    <path id="패스_4673" data-name="패스 4673" d="M175.225,259.971H165.141v-18.9a1.248,1.248,0,0,1,1.248-1.248h7.587a1.248,1.248,0,0,1,1.248,1.248Z" transform="translate(-134.944 -195.971)" fill="#1570ef"/>
    <path id="패스_4674" data-name="패스 4674" d="M257.795,232.8H247.711V207.82a1.248,1.248,0,0,1,1.248-1.248h7.587a1.248,1.248,0,0,1,1.248,1.248Z" transform="translate(-202.415 -168.799)" fill="#1570ef"/>
    <path id="패스_4675" data-name="패스 4675" d="M53.5,118.192a4.334,4.334,0,0,0-4.161,5.551l-8.1,5.2a4.33,4.33,0,0,0-5.671,0l-8.1-5.2a4.335,4.335,0,1,0-8.322,0l-8.1,5.2a4.331,4.331,0,1,0,1.326,2.062l8.1-5.2a4.33,4.33,0,0,0,5.671,0l8.1,5.2a4.335,4.335,0,1,0,8.322,0l8.1-5.2a4.335,4.335,0,1,0,2.835-7.613" transform="translate(-3.158 -96.58)" fill="#1570ef"/>
  </g>
</svg>
