<svg id="icon4" xmlns="http://www.w3.org/2000/svg" xmlns:xlink="http://www.w3.org/1999/xlink" width="48.684" height="60.686" viewBox="0 0 48.684 60.686">
  <defs>
    <clipPath id="clip-path">
      <rect id="사각형_299" data-name="사각형 299" width="48.684" height="60.686" fill="#1570ef"/>
    </clipPath>
  </defs>
  <g id="그룹_248" data-name="그룹 248" clip-path="url(#clip-path)">
    <path id="패스_4676" data-name="패스 4676" d="M24.249,60.686a1.736,1.736,0,0,1-.71-.152A43.614,43.614,0,0,1,.767,36.653,10.861,10.861,0,0,1,0,32.639V11.075A1.736,1.736,0,0,1,1.544,9.349a42.242,42.242,0,0,0,12.81-3.535A42.329,42.329,0,0,0,23.23.379,1.736,1.736,0,0,1,25.4.385,41.712,41.712,0,0,0,36.9,6.97,41.623,41.623,0,0,0,47.133,9.4a1.737,1.737,0,0,1,1.552,1.727V32.435a10.8,10.8,0,0,1-.86,4.244,47.016,47.016,0,0,1-9.43,14.238,47.056,47.056,0,0,1-13.4,9.6,1.738,1.738,0,0,1-.747.169M3.473,12.6V32.639A7.4,7.4,0,0,0,4,35.375a40.14,40.14,0,0,0,20.23,21.653A43.553,43.553,0,0,0,35.9,48.5a43.515,43.515,0,0,0,8.725-13.176,7.353,7.353,0,0,0,.585-2.887V12.661a45.116,45.116,0,0,1-9.531-2.44A45.111,45.111,0,0,1,24.306,3.936a45.87,45.87,0,0,1-8.515,5.04A45.726,45.726,0,0,1,3.473,12.6" transform="translate(0 0)" fill="#1570ef"/>
    <path id="패스_4677" data-name="패스 4677" d="M61.169,156.7a35.844,35.844,0,0,1-16.182-18.388,3.118,3.118,0,0,1-.221-1.153V127.041a.556.556,0,0,1,.557-.556l32.025.069a.556.556,0,0,1,.555.556v9.846a3.076,3.076,0,0,1-.243,1.208A38.5,38.5,0,0,1,61.169,156.7" transform="translate(-36.992 -104.521)" fill="#1570ef"/>
    <path id="패스_4678" data-name="패스 4678" d="M125.011,160.693" transform="translate(-96.632 -129.454)" fill="#1570ef"/>
    <path id="패스_4679" data-name="패스 4679" d="M101.227,71.53H84.9a1.737,1.737,0,0,1-1.736-1.736V65.726a7.859,7.859,0,0,1,7.85-7.85h4.1a7.859,7.859,0,0,1,7.85,7.85v4.068a1.737,1.737,0,0,1-1.736,1.736M86.634,68.057H99.491V65.726a4.382,4.382,0,0,0-4.377-4.377h-4.1a4.382,4.382,0,0,0-4.377,4.377Z" transform="translate(-68.72 -47.826)" fill="#1570ef"/>
  </g>
</svg>
