<svg id="icon1" xmlns="http://www.w3.org/2000/svg" xmlns:xlink="http://www.w3.org/1999/xlink" width="65" height="65" viewBox="0 0 65 65">
  <defs>
    <clipPath id="clip-path">
      <rect id="사각형_322" data-name="사각형 322" width="65" height="65" fill="#1570ef"/>
    </clipPath>
  </defs>
  <g id="그룹_268" data-name="그룹 268" clip-path="url(#clip-path)">
    <path id="패스_4735" data-name="패스 4735" d="M276.74,142.386a5.712,5.712,0,0,1-11.1,1.9h-2.285v-3.809h2.285a5.712,5.712,0,0,1,11.1,1.9" transform="translate(-211.74 -109.886)" fill="#1570ef"/>
    <path id="패스_4736" data-name="패스 4736" d="M13.383,140.482v3.809H11.1a5.713,5.713,0,1,1,0-3.809Z" transform="translate(0 -109.886)" fill="#1570ef"/>
    <path id="패스_4737" data-name="패스 4737" d="M148.1,277.3a5.713,5.713,0,1,1-7.617-5.385v-.757a36.614,36.614,0,0,0,3.809,0v.757A5.722,5.722,0,0,1,148.1,277.3" transform="translate(-109.885 -218.011)" fill="#1570ef"/>
    <path id="패스_4738" data-name="패스 4738" d="M257.508,252.311a5.712,5.712,0,1,1-10.867-2.462l-7.2-7.2a11.578,11.578,0,0,0,2.82-2.568l7.078,7.079a5.719,5.719,0,0,1,8.175,5.154" transform="translate(-192.508 -193.024)" fill="#1570ef"/>
    <path id="패스_4739" data-name="패스 4739" d="M148.1,5.713a5.722,5.722,0,0,1-3.809,5.385v.757a36.572,36.572,0,0,0-3.809,0V11.1A5.713,5.713,0,1,1,148.1,5.713" transform="translate(-109.885)" fill="#1570ef"/>
    <path id="패스_4740" data-name="패스 4740" d="M257.482,5.713a5.719,5.719,0,0,1-8.175,5.154l-7.083,7.084a11.941,11.941,0,0,0-2.821-2.567l7.211-7.21a5.712,5.712,0,1,1,10.867-2.462" transform="translate(-192.482)" fill="#1570ef"/>
    <path id="패스_4741" data-name="패스 4741" d="M18.078,15.384a11.945,11.945,0,0,0-2.821,2.567L8.175,10.867a5.713,5.713,0,1,1,2.693-2.693Z" fill="#1570ef"/>
    <path id="패스_4742" data-name="패스 4742" d="M10.867,249.849a5.712,5.712,0,1,1-2.693-2.693l7.078-7.079a11.577,11.577,0,0,0,2.82,2.568Z" transform="translate(0 -193.023)" fill="#1570ef"/>
    <path id="패스_4743" data-name="패스 4743" d="M103.023,181.921c9.058,0,14.943-3.02,15.308-5.225v-2.549c-7.443,4.711-23.169,4.713-30.617,0V176.7c.366,2.2,6.25,5.225,15.308,5.225" transform="translate(-70.523 -140.015)" fill="#1570ef"/>
    <path id="패스_4744" data-name="패스 4744" d="M103.023,140.869c9.058,0,14.943-3.02,15.308-5.225V133.1c-7.444,4.711-23.169,4.713-30.617,0v2.549c.366,2.2,6.25,5.225,15.308,5.225" transform="translate(-70.523 -107.01)" fill="#1570ef"/>
    <path id="패스_4745" data-name="패스 4745" d="M87.715,215.2v.286c0,7.267,16.509,9.637,25.533,5.791,4.423-1.885,5.084-4.438,5.084-5.791V215.2c-7.444,4.711-23.169,4.713-30.617,0" transform="translate(-70.523 -173.02)" fill="#1570ef"/>
    <path id="패스_4746" data-name="패스 4746" d="M102.948,86.993c-9.356,0-15.327-3.222-15.327-5.44s5.971-5.44,15.327-5.44,15.327,3.222,15.327,5.44-5.971,5.44-15.327,5.44" transform="translate(-70.448 -61.196)" fill="#1570ef"/>
  </g>
</svg>
