<svg id="icon2" xmlns="http://www.w3.org/2000/svg" xmlns:xlink="http://www.w3.org/1999/xlink" width="60.983" height="64" viewBox="0 0 60.983 64">
  <defs>
    <clipPath id="clip-path">
      <rect id="사각형_303" data-name="사각형 303" width="60.983" height="64" fill="#1570ef"/>
    </clipPath>
  </defs>
  <g id="그룹_256" data-name="그룹 256" clip-path="url(#clip-path)">
    <path id="패스_4704" data-name="패스 4704" d="M129.283,78.077V68.232c-2.985.82-5.565,4.647-6.918,9.845Z" transform="translate(-99.99 -55.755)" fill="#1570ef"/>
    <path id="패스_4705" data-name="패스 4705" d="M127.268,211.434a18.465,18.465,0,0,0-2.709,5.529,22.4,22.4,0,0,1-2.192-5.529Z" transform="translate(-99.991 -172.772)" fill="#1570ef"/>
    <path id="패스_4706" data-name="패스 4706" d="M116.845,140.952a33.731,33.731,0,0,0,.491,5.774h7.436V135.178h-7.436a33.736,33.736,0,0,0-.491,5.774" transform="translate(-95.479 -110.46)" fill="#1570ef"/>
    <path id="패스_4707" data-name="패스 4707" d="M180.219,78.077c-1.353-5.2-3.933-9.025-6.918-9.845v9.845Z" transform="translate(-141.612 -55.755)" fill="#1570ef"/>
    <path id="패스_4708" data-name="패스 4708" d="M235.6,140.953q0,.978-.094,1.93a18.5,18.5,0,0,0-7.383-1.526c-.128,0-.254,0-.38,0,0-.136,0-.272,0-.409a36.757,36.757,0,0,0-.451-5.775h7.433a19.37,19.37,0,0,1,.874,5.775" transform="translate(-185.732 -110.46)" fill="#1570ef"/>
    <path id="패스_4709" data-name="패스 4709" d="M196.484,68.553a25.621,25.621,0,0,1,2.238,6.1h6.98a19.42,19.42,0,0,0-12.792-10.613,14.325,14.325,0,0,1,3.573,4.517" transform="translate(-157.636 -52.327)" fill="#1570ef"/>
    <path id="패스_4710" data-name="패스 4710" d="M77.612,74.649a25.613,25.613,0,0,1,2.238-6.1,14.325,14.325,0,0,1,3.573-4.517A19.421,19.421,0,0,0,70.632,74.649Z" transform="translate(-57.716 -52.327)" fill="#1570ef"/>
    <path id="패스_4711" data-name="패스 4711" d="M81.627,220.241c-.043.4-.075.81-.091,1.222a19.45,19.45,0,0,1-10.9-10.029h6.981a25.589,25.589,0,0,0,2.238,6.1,16.828,16.828,0,0,0,1.775,2.711" transform="translate(-57.718 -172.772)" fill="#1570ef"/>
    <path id="패스_4712" data-name="패스 4712" d="M69.079,146.726a37.281,37.281,0,0,1,0-11.548H61.647a19.49,19.49,0,0,0,0,11.548Z" transform="translate(-49.659 -110.46)" fill="#1570ef"/>
    <path id="패스_4713" data-name="패스 4713" d="M181.226,140.953c0,.2,0,.409-.006.612a18.473,18.473,0,0,0-7.922,3.18v-9.567h7.436a33.714,33.714,0,0,1,.492,5.775" transform="translate(-141.609 -110.46)" fill="#1570ef"/>
    <path id="패스_4714" data-name="패스 4714" d="M238.784,46.828h0a1.186,1.186,0,0,0-2.068-.729l-.874.974a28.01,28.01,0,0,0-16.692-21.3,1.118,1.118,0,1,0-.868,2.061,25.766,25.766,0,0,1,15.265,19.085l-.681-.612a1.186,1.186,0,0,0-1.978.882v0a1.182,1.182,0,0,0,.392.879l3.794,3.408,3.408-3.794a1.186,1.186,0,0,0,.3-.856" transform="translate(-177.803 -20.986)" fill="#1570ef"/>
    <path id="패스_4715" data-name="패스 4715" d="M46.173.091a1.121,1.121,0,0,0-.3,2.008l.941.845A27.981,27.981,0,0,0,25.451,19.775a1.118,1.118,0,1,0,2.066.857A25.739,25.739,0,0,1,46.656,5.238l-.613.682A1.186,1.186,0,0,0,46.925,7.9h0a1.182,1.182,0,0,0,.879-.392l3.408-3.794L47.423.3a1.188,1.188,0,0,0-1.25-.213" transform="translate(-20.726 0)" fill="#1570ef"/>
    <path id="패스_4716" data-name="패스 4716" d="M5.237,171.316l.634.57a1.214,1.214,0,0,0,2.026-.9h0a1.048,1.048,0,0,0-.348-.779l-3.838-3.448L.348,170.5a1.357,1.357,0,0,0-.348.907,1.162,1.162,0,0,0,2.026.776l.916-1.02A27.981,27.981,0,0,0,19.773,192.52a1.118,1.118,0,1,0,.857-2.066A25.74,25.74,0,0,1,5.237,171.316" transform="translate(0 -136.263)" fill="#1570ef"/>
    <path id="패스_4717" data-name="패스 4717" d="M238.32,283.357v2.591a1.273,1.273,0,0,0,1.089-1.26c0-.605-.363-.968-1.089-1.331" transform="translate(-194.741 -231.543)" fill="#1570ef"/>
    <path id="패스_4718" data-name="패스 4718" d="M223.224,244.7c0,.46.217.847,1.066,1.331v-2.542a1.23,1.23,0,0,0-1.066,1.211" transform="translate(-182.406 -198.969)" fill="#1570ef"/>
    <path id="패스_4719" data-name="패스 4719" d="M166.981,191.278a14.512,14.512,0,1,0,14.512,14.512,14.512,14.512,0,0,0-14.512-14.512m1.187,23.278v2.131h-1.7V214.58a6.5,6.5,0,0,1-4.5-2.027,1.844,1.844,0,0,1,.46-2.823l.23-.133a1.854,1.854,0,0,1,2.281.342,2.678,2.678,0,0,0,1.532.815v-3.342c-.1-.048-.219-.074-.315-.121-2.107-.847-4.626-2.034-4.626-5.279,0-3.147,2.373-4.77,4.941-5.013v-2.107h1.7v2.156a5.944,5.944,0,0,1,3.449,1.585,1.845,1.845,0,0,1-.364,2.912l-.117.069a1.853,1.853,0,0,1-2.182-.262,2.257,2.257,0,0,0-.786-.454v3.27c2.107.894,4.965,1.695,4.965,5.23,0,3.027-2.083,4.819-4.965,5.158" transform="translate(-124.589 -156.301)" fill="#1570ef"/>
  </g>
</svg>
