<svg xmlns="http://www.w3.org/2000/svg" xmlns:xlink="http://www.w3.org/1999/xlink" width="24" height="24" viewBox="0 0 24 24">
  <defs>
    <clipPath id="clip-path">
      <rect id="사각형_219" data-name="사각형 219" width="24" height="24" transform="translate(328 5234)" fill="#fff" stroke="#707070" stroke-width="1"/>
    </clipPath>
  </defs>
  <g id="icon10" transform="translate(-328 -5234)" clip-path="url(#clip-path)">
    <path id="user-community-fill" d="M5.234,7.73a8,8,0,0,1,13.533,0l1.69-1.069a10,10,0,0,0-16.913,0ZM12,20a7.993,7.993,0,0,1-6.766-3.73l-1.69,1.069a10,10,0,0,0,16.913,0l-1.69-1.069A7.994,7.994,0,0,1,12,20Zm0-8A3,3,0,1,0,9,9,3,3,0,0,0,12,12Zm0,1a4,4,0,0,1,4,4H8A4,4,0,0,1,12,13ZM6,12A3,3,0,1,1,3,9,3,3,0,0,1,6,12Zm15,3a3,3,0,1,0-3-3A3,3,0,0,0,21,15Z" transform="translate(328 5234)" fill="#fff"/>
  </g>
</svg>
