<svg xmlns="http://www.w3.org/2000/svg" xmlns:xlink="http://www.w3.org/1999/xlink" width="24" height="24" viewBox="0 0 24 24">
  <defs>
    <clipPath id="clip-path">
      <rect id="사각형_55" data-name="사각형 55" width="24" height="24" transform="translate(328 2689)" fill="#fff" stroke="#707070" stroke-width="1"/>
    </clipPath>
  </defs>
  <g id="icon1" transform="translate(-328 -2689)" clip-path="url(#clip-path)">
    <path id="customer-service-2-fill" d="M22.909,8.727a2.182,2.182,0,0,1,2.182,2.182v4.364a2.182,2.182,0,0,1-2.182,2.182H21.751a8.729,8.729,0,0,1-8.66,7.636V22.909a6.545,6.545,0,0,0,6.545-6.545V9.818a6.545,6.545,0,1,0-13.091,0v7.636H3.273a2.182,2.182,0,0,1-2.182-2.182V10.909A2.182,2.182,0,0,1,3.273,8.727H4.431a8.728,8.728,0,0,1,17.32,0ZM8.465,17.22l1.157-1.85a6.551,6.551,0,0,0,6.939,0l1.157,1.85a8.735,8.735,0,0,1-9.252,0Z" transform="translate(326.909 2687.909)" fill="#fff"/>
  </g>
</svg>
