<svg id="icon1" xmlns="http://www.w3.org/2000/svg" xmlns:xlink="http://www.w3.org/1999/xlink" width="64" height="66.494" viewBox="0 0 64 66.494">
  <defs>
    <clipPath id="clip-path">
      <rect id="사각형_302" data-name="사각형 302" width="64" height="66.494" fill="#1570ef"/>
    </clipPath>
  </defs>
  <g id="그룹_254" data-name="그룹 254" clip-path="url(#clip-path)">
    <path id="패스_4699" data-name="패스 4699" d="M139.779,148.813v-3.985a2.742,2.742,0,0,1,.958.553,2.257,2.257,0,0,0,2.659.321l.143-.085a2.249,2.249,0,0,0,.443-3.55,7.24,7.24,0,0,0-4.2-1.93v-2.63h-2.066v2.57c-3.127.294-6.022,2.273-6.022,6.109,0,3.956,3.071,5.4,5.638,6.434.118.058.265.089.383.149v4.072a3.254,3.254,0,0,1-1.865-.992,2.257,2.257,0,0,0-2.781-.417l-.281.161a2.248,2.248,0,0,0-.56,3.441,7.912,7.912,0,0,0,5.487,2.469v2.57h2.066v-2.6c3.512-.412,6.051-2.6,6.051-6.285,0-4.31-3.481-5.284-6.051-6.376m-2.066-.974c-1.032-.59-1.3-1.061-1.3-1.622a1.5,1.5,0,0,1,1.3-1.475Zm2.066,8.944v-3.158c.887.441,1.328.885,1.328,1.623a1.553,1.553,0,0,1-1.328,1.535" transform="translate(-106.645 -111.383)" fill="#1570ef"/>
    <path id="패스_4700" data-name="패스 4700" d="M60.187,304.125v-4.3H3.812v4.3H0v5.232H64v-5.232Z" transform="translate(0 -242.864)" fill="#1570ef"/>
    <path id="패스_4701" data-name="패스 4701" d="M241.416,131.79l2.183-3.264a1.027,1.027,0,0,0-.854-1.6H231.992a1.027,1.027,0,0,0-.853,1.6l2.183,3.264a3.357,3.357,0,0,1,.566,1.866v16.492a3.355,3.355,0,0,1-.567,1.866l-2.183,3.264a1.027,1.027,0,0,0,.853,1.6h10.753a1.027,1.027,0,0,0,.853-1.6l-2.183-3.264a3.355,3.355,0,0,1-.566-1.866V133.656a3.355,3.355,0,0,1,.566-1.866" transform="translate(-187.085 -102.815)" fill="#1570ef"/>
    <path id="패스_4702" data-name="패스 4702" d="M49.973,131.79l2.183-3.264a1.027,1.027,0,0,0-.854-1.6H40.549a1.027,1.027,0,0,0-.853,1.6l2.183,3.264a3.357,3.357,0,0,1,.566,1.866v16.492a3.355,3.355,0,0,1-.567,1.866L39.7,155.277a1.027,1.027,0,0,0,.853,1.6H51.3a1.027,1.027,0,0,0,.853-1.6l-2.183-3.264a3.355,3.355,0,0,1-.566-1.866V133.656a3.355,3.355,0,0,1,.566-1.866" transform="translate(-32.012 -102.815)" fill="#1570ef"/>
    <path id="패스_4703" data-name="패스 4703" d="M38.418,0,7.923,17.054v4.514h60.99V17.054Zm0,15.8a4.035,4.035,0,1,1,4.035-4.035A4.035,4.035,0,0,1,38.418,15.8" transform="translate(-6.418)" fill="#1570ef"/>
  </g>
</svg>
