<svg xmlns="http://www.w3.org/2000/svg" width="64" height="59.924" viewBox="0 0 64 59.924">
  <g id="icon4" transform="translate(0 0.499)">
    <g id="그룹_57" data-name="그룹 57">
      <path id="패스_44" data-name="패스 44" d="M59.264,186.118l-7.123-16.982c5.276-3.511,10.723-5.2,17.012-4.194,5.635.9,11.356,1.265,17.041,1.845,2.33.237,3.59,1.227,3.84,3.1.32,2.4-1.039,4.038-3.47,3.943-5.075-.2-10.145-.521-15.219-.749a3.43,3.43,0,0,0-2.274.512,1.494,1.494,0,0,0-.2,2.078,3.475,3.475,0,0,0,2.389.737c4.018.256,8.042.4,12.065.585a38.32,38.32,0,0,0,3.847.126c3.889-.215,6.149-2.71,6.236-6.6a2.506,2.506,0,0,1,.907-1.751c1.616-1.143,3.327-2.161,5.052-3.138a10.275,10.275,0,0,1,2.589-1.021,3.8,3.8,0,0,1,4.276,1.954,3.272,3.272,0,0,1-1.192,4.31c-4.515,3.318-9.084,6.562-13.64,9.825-1.281.917-2.658,1.714-3.872,2.711-5.379,4.421-11.607,5.1-18.192,4.216-3.228-.433-6.443-.961-10.073-1.507" transform="translate(-42.61 -134.43)" fill="#1570ef"/>
      <path id="패스_45" data-name="패스 45" d="M5.036,180.786c1.117,2.646,2.178,5.153,3.234,7.663,1.72,4.087,3.405,8.189,5.174,12.255.464,1.067.339,1.687-.723,2.238C10.34,204.177,8,205.5,5.649,206.787a2.42,2.42,0,0,1-3.167-.515,6.977,6.977,0,0,1-2.476-5.5c.2-5.189.138-10.392.039-15.587a2.59,2.59,0,0,1,1.826-2.922c1.022-.378,1.984-.921,3.165-1.481" transform="translate(0 -147.738)" fill="#1570ef"/>
      <path id="빼기_1" data-name="빼기 1" d="M-5726.82-1253.214a14.087,14.087,0,0,1-10.027-4.154,14.087,14.087,0,0,1-4.153-10.027,14.087,14.087,0,0,1,4.153-10.027,14.086,14.086,0,0,1,10.027-4.153,14.088,14.088,0,0,1,10.027,4.153,14.087,14.087,0,0,1,4.154,10.027,14.087,14.087,0,0,1-4.154,10.027A14.087,14.087,0,0,1-5726.82-1253.214Zm-5.165-10.326-.991,2.224a9.579,9.579,0,0,0,5.4,1.827v2.445h1.807v-2.467c3.151-.32,5.109-2.058,5.109-4.537,0-2.941-2.417-3.772-5.109-4.426v-4.449a9.138,9.138,0,0,1,3.567,1.189l.9-2.225a9.391,9.391,0,0,0-4.471-1.343v-2.445h-1.807v2.488c-3.125.3-5.066,2.04-5.066,4.537,0,2.973,2.4,3.8,5.066,4.449v4.406a8.443,8.443,0,0,1-4.4-1.674Zm6.211,1.629h0v-3.9c1.133.322,2.291.807,2.291,1.961,0,1.027-.813,1.715-2.29,1.938Zm-1.807-7.025h0c-1.155-.339-2.223-.805-2.223-1.916,0-1.07.79-1.782,2.225-2v3.919Z" transform="translate(5763.586 1281.576)" fill="#1570ef" stroke="rgba(0,0,0,0)" stroke-miterlimit="10" stroke-width="1"/>
    </g>
  </g>
</svg>
