<svg id="icon2" xmlns="http://www.w3.org/2000/svg" xmlns:xlink="http://www.w3.org/1999/xlink" width="63" height="63" viewBox="0 0 63 63">
  <defs>
    <clipPath id="clip-path">
      <rect id="사각형_321" data-name="사각형 321" width="63" height="63" fill="#1570ef"/>
    </clipPath>
  </defs>
  <g id="그룹_266" data-name="그룹 266" clip-path="url(#clip-path)">
    <path id="패스_4731" data-name="패스 4731" d="M199.654,0a5.546,5.546,0,0,0-5.219,3.691h-4.718a1.845,1.845,0,0,0-1.305.541l-5.935,5.935a22.9,22.9,0,0,0-6.94-1.666V22.07a9.6,9.6,0,0,1,6.124,14.79l9.59,9.59a23.045,23.045,0,0,0-5.331-34.506l4.561-4.561h3.953A5.537,5.537,0,1,0,199.654,0" transform="translate(-142.191)" fill="#1570ef"/>
    <path id="패스_4732" data-name="패스 4732" d="M16.779,4.232a1.845,1.845,0,0,0-1.305-.541H10.757a5.537,5.537,0,1,0,0,3.691H14.71l4.561,4.561A23.094,23.094,0,0,0,8.5,29.654H22.07a9.634,9.634,0,0,1,7.584-7.585V8.5a22.9,22.9,0,0,0-6.94,1.666Z" fill="#1570ef"/>
    <path id="패스_4733" data-name="패스 4733" d="M175.537,209.236V222.8a22.967,22.967,0,0,0,13.1-5.439l-9.59-9.59a9.529,9.529,0,0,1-3.514,1.461" transform="translate(-142.191 -168.305)" fill="#1570ef"/>
    <path id="패스_4734" data-name="패스 4734" d="M22.07,175.537H8.5a23.094,23.094,0,0,0,10.77,17.71l-4.561,4.561H10.757a5.537,5.537,0,1,0,0,3.691h4.718a1.845,1.845,0,0,0,1.305-.541l5.935-5.935a22.9,22.9,0,0,0,6.94,1.666V183.122a9.635,9.635,0,0,1-7.585-7.585" transform="translate(0 -142.191)" fill="#1570ef"/>
  </g>
</svg>
