<svg xmlns="http://www.w3.org/2000/svg" xmlns:xlink="http://www.w3.org/1999/xlink" width="24" height="24" viewBox="0 0 24 24">
  <defs>
    <clipPath id="clip-path">
      <rect id="사각형_58" data-name="사각형 58" width="24" height="24" transform="translate(1238 2689)" fill="#fff" stroke="#707070" stroke-width="1"/>
    </clipPath>
  </defs>
  <g id="icon3" transform="translate(-1238 -2689)" clip-path="url(#clip-path)">
    <path id="lock-fill" d="M22.8,12H24a1.2,1.2,0,0,1,1.2,1.2v12A1.2,1.2,0,0,1,24,26.4H4.8a1.2,1.2,0,0,1-1.2-1.2v-12A1.2,1.2,0,0,1,4.8,12H6V10.8a8.4,8.4,0,0,1,16.8,0Zm-2.4,0V10.8a6,6,0,0,0-12,0V12Zm-7.2,4.8v4.8h2.4V16.8Z" transform="translate(1235.6 2686.6)" fill="#fff"/>
  </g>
</svg>
