<svg id="icon2" xmlns="http://www.w3.org/2000/svg" xmlns:xlink="http://www.w3.org/1999/xlink" width="64" height="59.381" viewBox="0 0 64 59.381">
  <defs>
    <clipPath id="clip-path">
      <rect id="사각형_301" data-name="사각형 301" width="64" height="59.381" fill="#1570ef"/>
    </clipPath>
  </defs>
  <g id="그룹_252" data-name="그룹 252" clip-path="url(#clip-path)">
    <path id="패스_4689" data-name="패스 4689" d="M305.13,142.982l-6.378.268a1.053,1.053,0,0,1-1.089-.925l-2.229-18.387a1.053,1.053,0,0,1,.9-1.169l6.457-.919a1.053,1.053,0,0,1,1.195.924l2.15,19.038a1.053,1.053,0,0,1-1,1.17" transform="translate(-242.139 -99.862)" fill="#1570ef"/>
    <path id="패스_4690" data-name="패스 4690" d="M133.211,143.921l-7.383,5.142q-3.513-3.655-7.024-7.311c.067-.019.136-.039.205-.061a11.589,11.589,0,0,0,4.76-2.866,1.022,1.022,0,0,0,.3-.726,1.013,1.013,0,0,0-1.727-.719,9.693,9.693,0,0,1-3.936,2.377q-.166.052-.33.1a1.537,1.537,0,0,1-1.509-.424l-5.131-5.341a1.44,1.44,0,0,0-1.866-.182q-1.725,1.207-3.992,2.792a24.75,24.75,0,0,1-3.8,1.984,4.192,4.192,0,0,1-2.46.312,2.84,2.84,0,0,1-.86-.47,3.007,3.007,0,0,1-.976-1.43,3.072,3.072,0,0,1,.514-2.8c.833-1.087,1.728-2.194,2.689-3.31q.875-1.016,1.752-1.964a14.508,14.508,0,0,1,14.828-4.057l6.861,2.061h7.035Z" transform="translate(-79.783 -101.918)" fill="#1570ef"/>
    <path id="패스_4691" data-name="패스 4691" d="M85.636,204.659a3.4,3.4,0,0,1-2.421,1,3.44,3.44,0,0,1-1.193-.213,3.627,3.627,0,0,1-1.52,2.332,3.511,3.511,0,0,1-1.39.571,3.652,3.652,0,0,1-2.34-.356A3.7,3.7,0,0,1,70.54,209.8l-.15-.15a6.566,6.566,0,0,1-8.552-.62L48.483,195.678a2.9,2.9,0,0,0,.213-.826l.157-1.477L63.175,207.7a4.672,4.672,0,0,0,5.859.6l-6.064-6.064,1.336-1.336,7.54,7.54a1.874,1.874,0,0,0,1.133.555,1.817,1.817,0,0,0,1.481-3.074L68.2,199.653l1.337-1.336,6.246,6.246c.013.015.027.027.039.04l1.37,1.37a1.807,1.807,0,0,0,1.217.545,1.738,1.738,0,0,0,1.28-2.965L72,195.867l1.336-1.337,8.757,8.757a1.6,1.6,0,0,0,1.053.484,1.533,1.533,0,0,0,1.152-2.616L69.68,186.536a.945.945,0,0,1,1.337-1.337l14.619,14.619a3.428,3.428,0,0,1,0,4.841" transform="translate(-39.738 -151.567)" fill="#1570ef"/>
    <path id="패스_4692" data-name="패스 4692" d="M10.557,138.173l-.132,1.25-1.31,12.306-.157,1.477a2.913,2.913,0,0,1-.213.826A3,3,0,0,1,6,155.866H5.933L0,155.732l.042-1.89,5.935.134H6a1.091,1.091,0,0,0,1.079-.969l1.6-15.033a1.08,1.08,0,0,0-.933-1.191l-5.862-.8.254-1.872,5.863.8a2.97,2.97,0,0,1,2.557,3.263" transform="translate(0 -109.922)" fill="#1570ef"/>
    <path id="패스_4693" data-name="패스 4693" d="M67.209,153.077c-.089.1-.178.2-.266.306q-.67.778-1.327,1.583H57.794l.132-1.25a2.963,2.963,0,0,0,0-.64Z" transform="translate(-47.37 -125.466)" fill="#1570ef"/>
    <path id="패스_4694" data-name="패스 4694" d="M174.017,39.031v1.8c-.6-.343-.755-.618-.755-.944a.871.871,0,0,1,.755-.859" transform="translate(-142.01 -31.991)" fill="#1570ef"/>
    <path id="패스_4695" data-name="패스 4695" d="M184.881,68.625a.9.9,0,0,1-.773.894V67.681c.516.258.773.514.773.944" transform="translate(-150.9 -55.473)" fill="#1570ef"/>
    <path id="패스_4696" data-name="패스 4696" d="M174.017,39.031v1.8c-.6-.343-.755-.618-.755-.944a.871.871,0,0,1,.755-.859" transform="translate(-142.01 -31.991)" fill="#1570ef"/>
    <path id="패스_4697" data-name="패스 4697" d="M184.881,68.625a.9.9,0,0,1-.773.894V67.681c.516.258.773.514.773.944" transform="translate(-150.9 -55.473)" fill="#1570ef"/>
    <path id="패스_4698" data-name="패스 4698" d="M131.467,0a10.56,10.56,0,1,0,10.56,10.56A10.558,10.558,0,0,0,131.467,0m.841,16.775v1.511h-1.2V16.792a4.62,4.62,0,0,1-3.193-1.438,1.308,1.308,0,0,1,.327-2l.162-.095a1.329,1.329,0,0,1,1.628.254,1.9,1.9,0,0,0,1.076.567V11.71c-.069-.034-.154-.051-.223-.086-1.494-.6-3.279-1.442-3.279-3.742a3.538,3.538,0,0,1,3.5-3.554V2.834h1.2V4.362a4.219,4.219,0,0,1,2.446,1.123A1.309,1.309,0,0,1,134.5,7.55l-.082.049a1.312,1.312,0,0,1-1.546-.186,1.607,1.607,0,0,0-.559-.321V9.409c1.494.635,3.521,1.2,3.521,3.708a3.6,3.6,0,0,1-3.521,3.657" transform="translate(-99.1)" fill="#1570ef"/>
  </g>
</svg>
