<svg xmlns="http://www.w3.org/2000/svg" xmlns:xlink="http://www.w3.org/1999/xlink" width="24" height="24" viewBox="0 0 24 24">
  <defs>
    <clipPath id="clip-path">
      <rect id="사각형_261" data-name="사각형 261" width="24" height="24" transform="translate(550 3918)" fill="#fff" stroke="#707070" stroke-width="1"/>
    </clipPath>
  </defs>
  <g id="iocn2" transform="translate(-550 -3918)" clip-path="url(#clip-path)">
    <path id="group-3-fill" d="M3,8.4A4.8,4.8,0,1,0,7.8,3.6,4.8,4.8,0,0,0,3,8.4ZM2.4,25.2V19.8a5.4,5.4,0,1,1,10.8,0v5.4ZM21,13.2a4.8,4.8,0,1,1,4.8-4.8A4.8,4.8,0,0,1,21,13.2Zm-5.4,12V19.8a5.4,5.4,0,1,1,10.8,0v5.4Z" transform="translate(547.6 3915.6)" fill="#fff"/>
  </g>
</svg>
