<svg width="32" height="32" viewBox="0 0 32 32" fill="none" xmlns="http://www.w3.org/2000/svg">
<path fill-rule="evenodd" clip-rule="evenodd" d="M16 0C24.8366 0 32 7.16344 32 16C32 24.8366 24.8366 32 16 32C7.16345 32 0 24.8366 0 16C0 7.16344 7.16345 0 16 0ZM15.4217 1.19727C13.5964 1.45415 11.8583 2.92086 10.5091 5.37392C10.1178 6.08546 9.76464 6.87157 9.45688 7.72035C11.2914 7.25934 13.3067 6.98754 15.4217 6.9455V1.19727ZM8.10464 8.10464C8.48728 6.90366 8.95544 5.79872 9.49568 4.81652C10.1645 3.60047 10.9582 2.55036 11.8526 1.74382C6.98944 3.15618 3.15618 6.98943 1.74382 11.8526C2.55036 10.9582 3.60048 10.1645 4.81653 9.49568C5.79873 8.95544 6.90366 8.48728 8.10464 8.10464ZM7.72032 9.45688C7.25933 11.2914 6.98754 13.3067 6.9455 15.4217H1.19727C1.45415 13.5963 2.92086 11.8582 5.37392 10.5091C6.08547 10.1178 6.87157 9.76464 7.72032 9.45688ZM8.1024 15.4217C8.15016 13.1136 8.4824 10.9467 9.03216 9.03216C10.9467 8.4824 13.1137 8.15008 15.4217 8.10232V10.6006C14.5606 12.805 12.8045 14.561 10.6001 15.4217H8.1024ZM6.9455 16.5783H1.19727C1.45415 18.4037 2.92086 20.1417 5.37392 21.4909C6.08547 21.8822 6.87157 22.2354 7.72032 22.5431C7.25933 20.7086 6.98754 18.6933 6.9455 16.5783ZM9.03216 22.9678C8.4824 21.0533 8.15016 18.8864 8.1024 16.5783H10.6001C12.8045 17.439 14.5607 19.195 15.4217 21.3994V23.8977C13.1137 23.8499 10.9467 23.5176 9.03216 22.9678ZM8.10464 23.8954C6.90366 23.5127 5.79873 23.0446 4.81653 22.5043C3.60048 21.8355 2.55036 21.0418 1.74382 20.1474C3.15618 25.0106 6.98944 28.8438 11.8526 30.2562C10.9582 29.4496 10.1645 28.3995 9.49568 27.1834C8.95544 26.2013 8.48728 25.0963 8.10464 23.8954ZM15.4217 30.8027C13.5964 30.5458 11.8583 29.0791 10.5091 26.6261C10.1178 25.9146 9.76464 25.1284 9.45688 24.2797C11.2914 24.7406 13.3067 25.0125 15.4217 25.0545V30.8027ZM20.1474 30.2562C21.0418 29.4496 21.8355 28.3995 22.5044 27.1834C23.0446 26.2013 23.5127 25.0963 23.8954 23.8954C25.0963 23.5127 26.2013 23.0446 27.1835 22.5043C28.3995 21.8355 29.4497 21.0418 30.2562 20.1474C28.8438 25.0106 25.0106 28.8438 20.1474 30.2562ZM22.5431 24.2797C22.2354 25.1284 21.8822 25.9146 21.4909 26.6261C20.1418 29.0791 18.4037 30.5458 16.5783 30.8027V25.0545C18.6933 25.0125 20.7086 24.7406 22.5431 24.2797ZM24.2797 22.5431C25.1284 22.2354 25.9146 21.8822 26.6261 21.4909C29.0791 20.1417 30.5458 18.4037 30.8027 16.5783H25.0545C25.0125 18.6933 24.7406 20.7086 24.2797 22.5431ZM23.8977 16.5783C23.8499 18.8864 23.5176 21.0533 22.9678 22.9678C21.0533 23.5176 18.8864 23.8499 16.5783 23.8977V21.4012C17.439 19.1961 19.1956 17.4393 21.4006 16.5783H23.8977ZM25.0545 15.4217H30.8027C30.5458 13.5963 29.0791 11.8582 26.6261 10.5091C25.9146 10.1178 25.1284 9.76464 24.2797 9.45688C24.7406 11.2914 25.0125 13.3067 25.0545 15.4217ZM22.9678 9.03216C23.5176 10.9467 23.8499 13.1136 23.8977 15.4217H21.4006C19.1956 14.5607 17.439 12.8039 16.5783 10.5988V8.10232C18.8864 8.15008 21.0533 8.4824 22.9678 9.03216ZM23.8954 8.10464C25.0963 8.48728 26.2013 8.95544 27.1835 9.49568C28.3995 10.1645 29.4497 10.9582 30.2562 11.8526C28.8438 6.98943 25.0106 3.15618 20.1474 1.74382C21.0418 2.55036 21.8355 3.60047 22.5044 4.81652C23.0446 5.79872 23.5127 6.90366 23.8954 8.10464ZM16.5783 1.19727C18.4037 1.45415 20.1418 2.92086 21.4909 5.37392C21.8822 6.08547 22.2354 6.87157 22.5431 7.72035C20.7086 7.25934 18.6933 6.98754 16.5783 6.9455V1.19727Z" fill="#BBFD05"/>
</svg>
