<svg xmlns="http://www.w3.org/2000/svg" xmlns:xlink="http://www.w3.org/1999/xlink" width="21" height="21" viewBox="0 0 21 21">
  <defs>
    <clipPath id="clip-path">
      <rect id="사각형_83" data-name="사각형 83" width="21" height="21" transform="translate(1495 4417)" fill="#667085" stroke="#707070" stroke-width="1"/>
    </clipPath>
  </defs>
  <g id="youtube" transform="translate(-1495 -4417)" clip-path="url(#clip-path)">
    <path id="youtube-fill_1_" data-name="youtube-fill (1)" d="M12.857,4.2c.561,0,1.964.017,3.455.076l.529.023a21.459,21.459,0,0,1,3.745.4A2.951,2.951,0,0,1,22.62,6.822a30.818,30.818,0,0,1,.479,5.606v.343a30.818,30.818,0,0,1-.479,5.606A2.951,2.951,0,0,1,20.585,20.5a21.463,21.463,0,0,1-3.745.4l-.529.023c-1.491.06-2.894.073-3.455.076h-.514c-1.187-.007-6.15-.06-7.728-.5a2.952,2.952,0,0,1-2.036-2.123A30.825,30.825,0,0,1,2.1,12.771v-.343a30.824,30.824,0,0,1,.479-5.606A2.951,2.951,0,0,1,4.614,4.7c1.578-.439,6.541-.493,7.728-.5ZM10.5,8.924v7.35L16.8,12.6Z" transform="translate(1492.9 4414.9)" fill="#667085"/>
  </g>
</svg>
